<svg width="39" height="43" viewBox="0 0 39 43" fill="none" xmlns="http://www.w3.org/2000/svg">
<path d="M38.8325 30.7354C38.1233 32.8388 37.0048 34.9422 35.4772 37.0455C33.1312 40.3436 30.7942 41.9926 28.4664 41.9926C27.5753 41.9926 26.3022 41.7234 24.6473 41.1849C23.0833 40.6465 21.7102 40.3773 20.5281 40.3773C19.4188 40.3773 18.1276 40.6549 16.6545 41.2102C15.1814 41.7823 13.9811 42.0684 13.0536 42.0684C10.2893 42.0684 7.55231 39.8893 4.84257 35.5311C2.1692 31.1393 0.83252 26.9073 0.83252 22.8352C0.83252 18.9986 1.86004 15.852 3.91508 13.3953C5.97011 10.9722 8.55255 9.76067 11.6624 9.76067C12.9718 9.76067 14.5813 10.0131 16.4908 10.5179C18.3822 11.0227 19.637 11.2751 20.2553 11.2751C21.0737 11.2751 22.374 10.989 24.1563 10.4169C26.0113 9.8448 27.5844 9.55874 28.8756 9.55874C31.0397 9.55874 32.9766 10.1056 34.6861 11.1994C35.6318 11.8051 36.5774 12.6465 37.5231 13.7234C36.0864 14.8508 35.0498 15.8436 34.4133 16.7018C33.2312 18.2835 32.6401 20.0251 32.6401 21.9265C32.6401 24.0131 33.2676 25.8893 34.5224 27.5551C35.7772 29.221 37.214 30.2811 38.8325 30.7354ZM28.5755 1.12846C28.5755 2.1549 28.3118 3.29913 27.7844 4.56115C27.2388 5.82317 26.3932 6.98422 25.2475 8.04432C24.2654 8.95297 23.2833 9.55874 22.3013 9.86163C21.6284 10.0467 20.6827 10.1898 19.4643 10.2907C19.5188 7.7835 20.2281 5.62124 21.592 3.80394C22.9378 2.00346 25.2111 0.758263 28.4118 0.0683594C28.43 0.11884 28.4528 0.211388 28.48 0.346004C28.5073 0.480619 28.5301 0.573167 28.5482 0.623648C28.5482 0.690956 28.5528 0.77509 28.5619 0.876052C28.571 0.977013 28.5755 1.06115 28.5755 1.12846Z" fill="white"/>
</svg>
