<svg width="24" height="21" viewBox="0 0 24 21" fill="none" xmlns="http://www.w3.org/2000/svg">
<path d="M9.87569 12.5341C9.90009 12.5315 9.91328 12.5289 9.92646 12.5289C9.96273 12.5282 9.99899 12.5289 10.0359 12.5289C13.6381 12.5289 17.2409 12.5282 20.8431 12.5295C21.1391 12.5295 21.4279 12.4906 21.7088 12.3944C22.0121 12.2908 22.2818 12.1313 22.5212 11.9183C22.7302 11.7317 22.9003 11.5148 23.0296 11.2668C23.1456 11.0453 23.2221 10.8099 23.2643 10.5626C23.294 10.3905 23.3012 10.2178 23.2946 10.0443C23.2854 9.79115 23.2307 9.54586 23.1403 9.3098C23.0256 9.00979 22.8528 8.74604 22.6254 8.52119C22.3188 8.21788 21.9554 8.01018 21.5361 7.90336C21.3132 7.84599 21.0864 7.81896 20.8563 7.8183C20.3492 7.81764 19.8421 7.81632 19.3351 7.81632C16.2255 7.81698 13.1165 7.81764 10.0069 7.8183C9.97394 7.8183 9.94031 7.8183 9.90009 7.8183C9.94756 7.7372 10.001 7.67324 10.0603 7.61389C10.2904 7.38443 10.5199 7.15431 10.7494 6.92485C11.0342 6.63934 11.3191 6.35383 11.6039 6.06766C12.0998 5.56917 12.5956 5.07068 13.0915 4.5722C13.1864 4.47725 13.2847 4.38493 13.3743 4.28603C13.6269 4.00777 13.799 3.68402 13.8999 3.32202C13.9711 3.0675 14.0087 2.80771 13.9961 2.5433C13.9704 1.99932 13.7983 1.51006 13.4469 1.0874C13.2194 0.813762 12.9464 0.600125 12.6312 0.439237C12.3958 0.318572 12.1453 0.242084 11.8828 0.202522C11.7556 0.1834 11.6276 0.169553 11.4991 0.17285C11.2089 0.180762 10.9287 0.237469 10.6564 0.338353C10.3748 0.443193 10.1263 0.602103 9.89679 0.792003C9.85129 0.829587 9.80975 0.871128 9.76821 0.912668C7.91405 2.76617 6.05989 4.62033 4.20573 6.47449C3.12633 7.55389 2.04628 8.63328 0.967539 9.71334C0.908195 9.77268 0.849512 9.83401 0.801376 9.90192C0.666204 10.0918 0.672138 10.2718 0.815224 10.4578C0.86138 10.5171 0.912811 10.5732 0.966221 10.6266C1.71263 11.3736 2.4597 12.1201 3.20612 12.8671C4.77872 14.4404 6.35002 16.0137 7.92262 17.5869C8.51079 18.1751 9.10158 18.7613 9.68975 19.3494C9.94361 19.6033 10.2252 19.8163 10.5548 19.9613C10.7579 20.0504 10.9689 20.1123 11.1892 20.1427C11.3309 20.1624 11.472 20.177 11.6151 20.171C11.9831 20.1559 12.3338 20.0728 12.6615 19.9013C13.1468 19.6481 13.5062 19.2703 13.7436 18.7791C13.8695 18.5186 13.9513 18.243 13.9843 17.9542C13.9961 17.8487 14.0119 17.7425 14.01 17.637C14.0054 17.3529 13.9559 17.0766 13.8497 16.8108C13.7165 16.4779 13.5108 16.195 13.2596 15.9425C12.4908 15.1703 11.7226 14.3982 10.9538 13.6261C10.6116 13.2825 10.2693 12.9397 9.92712 12.5968C9.91196 12.5796 9.89745 12.5599 9.87569 12.5341Z" fill="#DE3DFF"/>
</svg>
