<svg width="18" height="17" viewBox="0 0 18 17" fill="none" xmlns="http://www.w3.org/2000/svg">
<path d="M7.29989 10.0616C7.31941 10.0594 7.32996 10.0573 7.34051 10.0573C7.36952 10.0568 7.39853 10.0573 7.42807 10.0573C10.3099 10.0573 13.1922 10.0568 16.074 10.0579C16.3109 10.0579 16.5419 10.0267 16.7666 9.94972C17.0093 9.8669 17.225 9.73924 17.4165 9.56886C17.5838 9.41957 17.7199 9.24602 17.8232 9.04767C17.9161 8.87043 17.9773 8.68211 18.011 8.48429C18.0348 8.34661 18.0406 8.2084 18.0353 8.06966C18.0279 7.8671 17.9841 7.67086 17.9119 7.48201C17.8201 7.242 17.6819 7.03099 17.4999 6.85111C17.2546 6.60845 16.9639 6.44229 16.6284 6.35683C16.4501 6.31094 16.2687 6.28931 16.0846 6.28878C15.6789 6.28825 15.2733 6.2872 14.8676 6.2872C12.3798 6.28772 9.89262 6.28825 7.40486 6.28878C7.37849 6.28878 7.35158 6.28878 7.31941 6.28878C7.35739 6.2239 7.40012 6.17273 7.44759 6.12525C7.63169 5.94168 7.81527 5.75757 7.99884 5.574C8.22673 5.34559 8.45461 5.11717 8.6825 4.88823C9.07919 4.48943 9.47588 4.09063 9.87257 3.69183C9.94853 3.61587 10.0271 3.54202 10.0989 3.46289C10.3009 3.24028 10.4386 2.98127 10.5193 2.69167C10.5763 2.48805 10.6063 2.28021 10.5963 2.06867C10.5757 1.63348 10.4381 1.24206 10.1569 0.903925C9.97491 0.685007 9.75652 0.514093 9.50437 0.38538C9.31604 0.288845 9.11559 0.227653 8.90564 0.196002C8.80383 0.180705 8.70149 0.169627 8.59863 0.172264C8.36652 0.178594 8.14233 0.223961 7.92446 0.30467C7.69922 0.388545 7.50034 0.515675 7.31677 0.667599C7.28037 0.697667 7.24714 0.730901 7.2139 0.764134C5.73054 2.24697 4.24717 3.73034 2.7638 5.21371C1.90026 6.07725 1.0362 6.94078 0.173185 7.80485C0.12571 7.85233 0.0787601 7.90139 0.0402527 7.95572C-0.0678883 8.10764 -0.0631409 8.25166 0.0513306 8.40041C0.0882549 8.44789 0.129402 8.49273 0.172131 8.53546C0.769276 9.13313 1.36695 9.73027 1.96409 10.3279C3.22221 11.5866 4.47928 12.8452 5.73739 14.1039C6.20794 14.5744 6.68059 15.0434 7.15113 15.5139C7.35422 15.717 7.57947 15.8874 7.84323 16.0035C8.0057 16.0747 8.17451 16.1243 8.35069 16.1485C8.46411 16.1644 8.577 16.176 8.69147 16.1712C8.98582 16.1591 9.26646 16.0926 9.52863 15.9555C9.91688 15.7529 10.2044 15.4506 10.3943 15.0576C10.495 14.8493 10.5604 14.6288 10.5868 14.3977C10.5963 14.3133 10.609 14.2284 10.6074 14.144C10.6037 13.9166 10.5641 13.6956 10.4792 13.483C10.3727 13.2166 10.2081 12.9903 10.0071 12.7883C9.392 12.1706 8.77745 11.5528 8.16237 10.9351C7.88859 10.6603 7.61481 10.386 7.34103 10.1117C7.3289 10.098 7.3173 10.0821 7.29989 10.0616Z" fill="#BF86F9"/>
</svg>
