<svg width="20" height="17" viewBox="0 0 20 17" fill="none" xmlns="http://www.w3.org/2000/svg">
<path d="M11.7001 10.6226C11.6806 10.6205 11.67 10.6184 11.6595 10.6184C11.6305 10.6178 11.6015 10.6184 11.5719 10.6184C8.69012 10.6184 5.80779 10.6178 2.92598 10.6189C2.68913 10.6189 2.45808 10.5878 2.23336 10.5108C1.9907 10.4279 1.77495 10.3003 1.58346 10.1299C1.41624 9.9806 1.28014 9.80705 1.17675 9.60871C1.08391 9.43146 1.02272 9.24314 0.988957 9.04532C0.965218 8.90764 0.959416 8.76943 0.964691 8.6307C0.972076 8.42813 1.01586 8.2319 1.08813 8.04305C1.17992 7.80303 1.31812 7.59203 1.50012 7.41214C1.74541 7.16949 2.03607 7.00332 2.37157 6.91786C2.54987 6.87197 2.73133 6.85034 2.91543 6.84981C3.32109 6.84929 3.72675 6.84823 4.13241 6.84823C6.62016 6.84876 9.10738 6.84929 11.5951 6.84981C11.6215 6.84981 11.6484 6.84981 11.6806 6.84981C11.6426 6.78493 11.5999 6.73376 11.5524 6.68629C11.3683 6.50271 11.1847 6.31861 11.0012 6.13503C10.7733 5.90662 10.5454 5.67821 10.3175 5.44927C9.92081 5.05047 9.52412 4.65167 9.12743 4.25287C9.05147 4.17691 8.97287 4.10305 8.90113 4.02393C8.69909 3.80132 8.56141 3.54231 8.4807 3.2527C8.42373 3.04908 8.39366 2.84124 8.40368 2.62971C8.42425 2.19451 8.56194 1.8031 8.8431 1.46496C9.02509 1.24604 9.24348 1.07513 9.49563 0.946415C9.68396 0.84988 9.88441 0.788688 10.0944 0.757038C10.1962 0.74174 10.2985 0.730662 10.4014 0.733299C10.6335 0.73963 10.8577 0.784996 11.0755 0.865705C11.3008 0.94958 11.4997 1.07671 11.6832 1.22863C11.7196 1.2587 11.7529 1.29194 11.7861 1.32517C13.2695 2.80801 14.7528 4.29138 16.2362 5.77474C17.0997 6.63828 17.9638 7.50182 18.8268 8.36589C18.8743 8.41336 18.9212 8.46242 18.9597 8.51676C19.0679 8.66868 19.0631 8.81269 18.9487 8.96145C18.9117 9.00893 18.8706 9.05376 18.8279 9.09649C18.2307 9.69417 17.6331 10.2913 17.0359 10.889C15.7778 12.1476 14.5207 13.4063 13.2626 14.6649C12.7921 15.1355 12.3194 15.6044 11.8489 16.075C11.6458 16.2781 11.4205 16.4484 11.1568 16.5645C10.9943 16.6357 10.8255 16.6853 10.6493 16.7096C10.5359 16.7254 10.423 16.737 10.3085 16.7322C10.0142 16.7201 9.73354 16.6536 9.47137 16.5165C9.08312 16.3139 8.79562 16.0117 8.60572 15.6187C8.50496 15.4103 8.43955 15.1898 8.41318 14.9587C8.40368 14.8743 8.39102 14.7894 8.3926 14.705C8.3963 14.4777 8.43586 14.2566 8.52079 14.044C8.62735 13.7776 8.79193 13.5513 8.99291 13.3493C9.608 12.7316 10.2225 12.1139 10.8376 11.4961C11.1114 11.2213 11.3852 10.947 11.659 10.6727C11.6711 10.659 11.6827 10.6432 11.7001 10.6226Z" fill="white"/>
</svg>
