<svg width="20" height="17" viewBox="0 0 20 17" fill="none" xmlns="http://www.w3.org/2000/svg">
<path d="M11.7001 10.8389C11.6806 10.8368 11.67 10.8347 11.6595 10.8347C11.6305 10.8341 11.6015 10.8347 11.5719 10.8347C8.69012 10.8347 5.80779 10.8341 2.92598 10.8352C2.68913 10.8352 2.45808 10.8041 2.23336 10.7271C1.9907 10.6442 1.77495 10.5166 1.58346 10.3462C1.41624 10.1969 1.28014 10.0234 1.17675 9.82502C1.08391 9.64777 1.02272 9.45945 0.988957 9.26163C0.965218 9.12395 0.959416 8.98574 0.964691 8.84701C0.972076 8.64444 1.01586 8.44821 1.08813 8.25936C1.17992 8.01934 1.31812 7.80833 1.50012 7.62845C1.74541 7.3858 2.03607 7.21963 2.37157 7.13417C2.54987 7.08828 2.73133 7.06665 2.91543 7.06612C3.32109 7.0656 3.72675 7.06454 4.13241 7.06454C6.62016 7.06507 9.10738 7.0656 11.5951 7.06612C11.6215 7.06612 11.6484 7.06612 11.6806 7.06612C11.6426 7.00124 11.5999 6.95007 11.5524 6.90259C11.3683 6.71902 11.1847 6.53492 11.0012 6.35134C10.7733 6.12293 10.5454 5.89452 10.3175 5.66558C9.92081 5.26678 9.52412 4.86798 9.12743 4.46918C9.05147 4.39321 8.97287 4.31936 8.90113 4.24023C8.69909 4.01762 8.56141 3.75862 8.4807 3.46901C8.42373 3.26539 8.39366 3.05755 8.40368 2.84602C8.42425 2.41082 8.56194 2.0194 8.8431 1.68127C9.02509 1.46235 9.24348 1.29144 9.49563 1.16272C9.68396 1.06619 9.88441 1.005 10.0944 0.973346C10.1962 0.958048 10.2985 0.94697 10.4014 0.949608C10.6335 0.955938 10.8577 1.0013 11.0755 1.08201C11.3008 1.16589 11.4997 1.29302 11.6832 1.44494C11.7196 1.47501 11.7529 1.50824 11.7861 1.54148C13.2695 3.02432 14.7528 4.50768 16.2362 5.99105C17.0997 6.85459 17.9638 7.71813 18.8268 8.5822C18.8743 8.62967 18.9212 8.67873 18.9597 8.73306C19.0679 8.88499 19.0631 9.029 18.9487 9.17776C18.9117 9.22523 18.8706 9.27007 18.8279 9.3128C18.2307 9.91047 17.6331 10.5076 17.0359 11.1053C15.7778 12.3639 14.5207 13.6226 13.2626 14.8812C12.7921 15.3518 12.3194 15.8207 11.8489 16.2913C11.6458 16.4944 11.4205 16.6648 11.1568 16.7808C10.9943 16.852 10.8255 16.9016 10.6493 16.9259C10.5359 16.9417 10.423 16.9533 10.3085 16.9486C10.0142 16.9364 9.73354 16.87 9.47137 16.7328C9.08312 16.5302 8.79562 16.228 8.60572 15.835C8.50496 15.6266 8.43955 15.4061 8.41318 15.1751C8.40368 15.0907 8.39102 15.0057 8.3926 14.9213C8.3963 14.694 8.43586 14.4729 8.52079 14.2603C8.62735 13.994 8.79193 13.7676 8.99291 13.5656C9.608 12.9479 10.2225 12.3302 10.8376 11.7125C11.1114 11.4376 11.3852 11.1633 11.659 10.889C11.6711 10.8753 11.6827 10.8595 11.7001 10.8389Z" fill="#BF86F9"/>
</svg>
