<svg width="20" height="16" viewBox="0 0 20 16" fill="none" xmlns="http://www.w3.org/2000/svg">
<g clip-path="url(#clip0_21_195)">
<path d="M8.30013 9.88948C8.31965 9.88737 8.3302 9.88526 8.34075 9.88526C8.36976 9.88473 8.39878 9.88526 8.42832 9.88526C11.3101 9.88526 14.1925 9.88473 17.0743 9.88579C17.3111 9.88579 17.5422 9.85466 17.7669 9.77765C18.0095 9.69483 18.2253 9.56717 18.4168 9.39678C18.584 9.2475 18.7201 9.07394 18.8235 8.8756C18.9163 8.69835 18.9775 8.51003 19.0113 8.31222C19.035 8.17453 19.0408 8.03633 19.0356 7.89759C19.0282 7.69502 18.9844 7.49879 18.9121 7.30994C18.8203 7.06992 18.6821 6.85892 18.5001 6.67904C18.2548 6.43638 17.9642 6.27021 17.6287 6.18476C17.4504 6.13886 17.2689 6.11723 17.0848 6.11671C16.6792 6.11618 16.2735 6.11512 15.8678 6.11512C13.3801 6.11565 10.8929 6.11618 8.40511 6.11671C8.37873 6.11671 8.35183 6.11671 8.31965 6.11671C8.35763 6.05182 8.40036 6.00065 8.44784 5.95318C8.63194 5.7696 8.81551 5.5855 8.99909 5.40193C9.22697 5.17351 9.45486 4.9451 9.68274 4.71616C10.0794 4.31736 10.4761 3.91856 10.8728 3.51976C10.9488 3.4438 11.0274 3.36994 11.0991 3.29082C11.3012 3.06821 11.4388 2.8092 11.5195 2.51959C11.5765 2.31597 11.6066 2.10813 11.5966 1.8966C11.576 1.4614 11.4383 1.06999 11.1571 0.731852C10.9752 0.512934 10.7568 0.342019 10.5046 0.213306C10.3163 0.116771 10.1158 0.0555798 9.90588 0.023929C9.80407 0.00863116 9.70173 -0.00244662 9.59887 0.000190947C9.36676 0.0065211 9.14257 0.0518872 8.92471 0.132597C8.69946 0.216471 8.50059 0.343602 8.31701 0.495526C8.28061 0.525594 8.24738 0.558827 8.21415 0.592061C6.73078 2.0749 5.24741 3.55827 3.76405 5.04163C2.90051 5.90517 2.03644 6.76871 1.17343 7.63278C1.12595 7.68025 1.079 7.72931 1.0405 7.78365C0.932356 7.93557 0.937103 8.07958 1.05157 8.22834C1.0885 8.27582 1.12965 8.32066 1.17237 8.36338C1.76952 8.96106 2.36719 9.5582 2.96434 10.1559C4.22246 11.4145 5.47952 12.6732 6.73764 13.9318C7.20818 14.4024 7.68083 14.8713 8.15137 15.3419C8.35447 15.5449 8.57971 15.7153 8.84347 15.8314C9.00595 15.9026 9.17475 15.9522 9.35094 15.9765C9.46435 15.9923 9.57724 16.0039 9.69171 15.9991C9.98606 15.987 10.2667 15.9205 10.5289 15.7834C10.9171 15.5808 11.2046 15.2786 11.3945 14.8856C11.4953 14.6772 11.5607 14.4567 11.5871 14.2256C11.5966 14.1412 11.6092 14.0563 11.6076 13.9719C11.6039 13.7445 11.5644 13.5235 11.4795 13.3109C11.3729 13.0445 11.2083 12.8182 11.0073 12.6162C10.3922 11.9985 9.7777 11.3808 9.16262 10.763C8.88884 10.4882 8.61506 10.2139 8.34128 9.93959C8.32915 9.92588 8.31754 9.91005 8.30013 9.88948Z" fill="#BF86F9"/>
</g>
<defs>
<clipPath id="clip0_21_195">
<rect width="18.0749" height="16.0004" fill="white" transform="matrix(-1 0 0 1 19.0374 -0.000198364)"/>
</clipPath>
</defs>
</svg>
