<svg width="10" height="12" viewBox="0 0 10 12" fill="none" xmlns="http://www.w3.org/2000/svg">
<path d="M9.63078 7.12453C9.57428 7.18253 9.36094 7.43053 9.1622 7.63453C7.99708 8.91753 4.95762 11.0175 3.36678 11.6585C3.12518 11.7615 2.51437 11.9795 2.18802 11.9935C1.8753 11.9935 1.5772 11.9215 1.29274 11.7755C0.938139 11.5715 0.653678 11.2505 0.497808 10.8715C0.397467 10.6085 0.241598 9.82153 0.241598 9.80753C0.0857282 8.94653 0 7.54753 0 6.00153C0 4.52853 0.0857282 3.18653 0.213346 2.31253C0.227959 2.29853 0.383829 1.32053 0.554311 0.98553C0.867024 0.37353 1.47784 -0.00646973 2.13151 -0.00646973H2.18802C2.61374 0.00853027 3.50901 0.38853 3.50901 0.40253C5.01413 1.04453 7.98344 3.04153 9.17681 4.36853C9.17681 4.36853 9.51291 4.70953 9.65904 4.92253C9.88699 5.22853 10 5.60753 10 5.98653C10 6.40953 9.87238 6.80353 9.63078 7.12453Z" fill="white"/>
</svg>
