<svg width="80" height="81" viewBox="0 0 80 81" fill="none" xmlns="http://www.w3.org/2000/svg">
<rect x="0.5" y="0.642578" width="79" height="79" rx="39.5" fill="#BF86F9"/>
<rect x="0.5" y="0.642578" width="79" height="79" rx="39.5" stroke="#BF86F9"/>
<g clip-path="url(#clip0_44_108)">
<path d="M67.3715 34.5258C66.6437 22.275 56.4473 12.5332 44.0172 12.5332H35.9828C23.5527 12.5332 13.3563 22.275 12.6285 34.5258C11.084 35.1914 10 36.7301 10 38.516V47.5781C10 49.9734 11.9488 51.9223 14.3441 51.9223H17.8598V34.1719H16.1793C17.0723 24.0305 25.6129 16.0488 35.9828 16.0488H44.0172C54.3871 16.0488 62.9277 24.0305 63.8207 34.1719H62.1402V51.9223H65.6559C68.0512 51.9223 70 49.9734 70 47.5781V38.516C70 36.7301 68.916 35.1914 67.3715 34.5258Z" fill="white"/>
<path d="M53.813 28.6699H26.1872C23.5341 28.6699 21.3755 30.8285 21.3755 33.4816V55.3816C21.3755 58.0348 23.5341 60.1934 26.1872 60.1934H32.2118L38.0712 67.1285C38.4052 67.5234 38.8962 67.752 39.4142 67.752C39.9321 67.752 40.4231 67.5234 40.7571 67.1285L46.6165 60.1934H53.813C56.4661 60.1934 58.6247 58.0348 58.6247 55.3816V33.4816C58.6247 30.8285 56.4661 28.6699 53.813 28.6699ZM46.4243 37.473C47.3946 37.473 48.1821 38.2594 48.1821 39.2309C48.1821 40.2012 47.3946 40.9887 46.4243 40.9887C45.454 40.9887 44.6665 40.2012 44.6665 39.2309C44.6665 38.2594 45.454 37.473 46.4243 37.473ZM32.8317 37.473C33.8021 37.473 34.5896 38.2594 34.5896 39.2309C34.5896 40.2012 33.8021 40.9887 32.8317 40.9887C31.8614 40.9887 31.0739 40.2012 31.0739 39.2309C31.0739 38.2594 31.8614 37.473 32.8317 37.473ZM48.7622 48.1371C46.0599 50.5336 43.0294 51.7324 40.0001 51.7324C36.9696 51.7324 33.9403 50.5348 31.238 48.1371C30.5114 47.4937 30.4446 46.3828 31.0892 45.6562C31.7337 44.9297 32.8446 44.8629 33.5712 45.5074C35.6138 47.3191 37.8063 48.225 40.0001 48.225C42.1938 48.225 44.3876 47.3191 46.4302 45.5074C47.1556 44.8629 48.2665 44.9297 48.911 45.6562C49.5556 46.3828 49.4888 47.4937 48.7622 48.1371Z" fill="white"/>
</g>
<defs>
<clipPath id="clip0_44_108">
<rect width="60" height="60" fill="white" transform="translate(10 10.1426)"/>
</clipPath>
</defs>
</svg>
