<svg width="58" height="53" viewBox="0 0 58 53" fill="none" xmlns="http://www.w3.org/2000/svg">
<path d="M29.2102 49.9428C40.2992 49.9428 49.2886 40.9228 49.2886 29.796C49.2886 18.6692 40.2992 9.64917 29.2102 9.64917C18.1212 9.64917 9.13184 18.6692 9.13184 29.796C9.13184 40.9228 18.1212 49.9428 29.2102 49.9428Z" fill="#BF86F9"/>
<path d="M3.56071 39.0179C3.50332 41.6208 3.99721 45.5514 6.98286 48.2888C6.9244 48.5329 6.88519 48.7842 6.88519 49.0462C6.88519 50.839 8.33354 52.2922 10.1202 52.2922C11.9068 52.2922 13.3552 50.839 13.3552 49.0462C13.3552 47.2535 11.9068 45.8002 10.1202 45.8002C9.25805 45.8002 8.47934 46.1439 7.89953 46.6957C5.55215 44.3344 5.23115 41.0456 5.32205 38.8947C6.75276 38.4281 7.79402 37.0949 7.79402 35.5036V31.9219C7.79402 30.4292 6.88287 29.1519 5.58905 28.614C6.85079 15.3764 16.9424 5.06035 29.2104 5.06035C41.4783 5.06035 51.5701 15.3763 52.832 28.614C51.538 29.1518 50.6267 30.4291 50.6267 31.9219V35.5036C50.6267 37.4816 52.2247 39.0851 54.196 39.0851C56.1675 39.0851 57.7654 37.4816 57.7654 35.5036V31.9219C57.7654 30.1365 56.4596 28.6683 54.7562 28.397C54.801 27.7834 54.8653 27.175 54.8653 26.5496C54.8653 12.3325 43.3794 0.807251 29.2104 0.807251C15.0415 0.807251 3.55554 12.3325 3.55554 26.5497C3.55554 27.1752 3.61989 27.7836 3.66462 28.3972C1.96121 28.6683 0.655273 30.1365 0.655273 31.9221V35.5038C0.655273 37.2534 1.90739 38.7049 3.56071 39.0179Z" fill="#BF86F9"/>
</svg>
