<svg width="18" height="18" viewBox="0 0 18 18" fill="none" xmlns="http://www.w3.org/2000/svg">
<path fill-rule="evenodd" clip-rule="evenodd" d="M5.36435 1.75186C3.21685 1.75186 1.82935 3.22436 1.82935 5.49602V12.341C1.82935 12.9785 1.94768 13.5477 2.15018 14.0402C2.15893 14.0298 2.34973 13.7972 2.59861 13.4939C3.08483 12.9014 3.79272 12.0388 3.79768 12.0344C4.37435 11.376 5.45685 10.3944 6.87768 10.9885C7.18903 11.1176 7.46577 11.2945 7.72053 11.4572C7.74534 11.4731 7.76994 11.4888 7.79435 11.5044C8.27185 11.8235 8.55268 11.9735 8.84435 11.9485C8.96518 11.9319 9.07852 11.896 9.18602 11.8294C9.59154 11.5794 10.6429 10.0897 10.9577 9.64359C11.0039 9.57816 11.0342 9.53518 11.0443 9.52186C11.9527 8.33852 13.3527 8.02186 14.5193 8.72186C14.676 8.81519 15.7985 9.59936 16.1702 9.91436V5.49602C16.1702 3.22436 14.7827 1.75186 12.6277 1.75186H5.36435ZM12.6277 0.589355C15.4418 0.589355 17.3327 2.55769 17.3327 5.49602V12.341C17.3327 12.4149 17.3249 12.4842 17.3172 12.5535C17.3117 12.6022 17.3063 12.6508 17.3035 12.701C17.3017 12.7314 17.3009 12.7617 17.3 12.7921C17.2988 12.8326 17.2977 12.873 17.2943 12.9135C17.2927 12.9294 17.2896 12.9446 17.2864 12.9598C17.2833 12.975 17.2802 12.9902 17.2785 13.006C17.251 13.2677 17.2085 13.5177 17.1494 13.7602C17.1354 13.8208 17.1192 13.8793 17.1029 13.9382L17.0993 13.951C17.0327 14.186 16.9543 14.4102 16.8602 14.6244C16.8437 14.6604 16.8263 14.6955 16.8089 14.7306C16.7973 14.754 16.7857 14.7774 16.7743 14.801C16.6727 15.0052 16.5627 15.201 16.4352 15.3827C16.4116 15.4163 16.3865 15.4478 16.3613 15.4794C16.3447 15.5003 16.3281 15.5211 16.3118 15.5427C16.1793 15.7144 16.041 15.8785 15.8843 16.0277C15.8531 16.0574 15.8193 16.0847 15.7854 16.1119C15.7643 16.1289 15.7432 16.1459 15.7227 16.1635C15.5619 16.3019 15.3977 16.4344 15.2169 16.5477C15.1774 16.5725 15.1355 16.5933 15.0937 16.614C15.0667 16.6274 15.0397 16.6408 15.0135 16.6552C14.8293 16.7569 14.6435 16.856 14.441 16.9327C14.3923 16.9512 14.3404 16.9646 14.2884 16.978C14.2515 16.9875 14.2145 16.9971 14.1785 17.0085C14.1605 17.0141 14.1425 17.0197 14.1245 17.0253C13.9436 17.0816 13.7633 17.1377 13.5685 17.171C13.4557 17.1908 13.3359 17.1984 13.2161 17.206C13.1642 17.2093 13.1123 17.2126 13.061 17.2169C13.0058 17.221 12.9517 17.2276 12.8975 17.2343C12.8094 17.2452 12.7211 17.256 12.6277 17.256H5.36435C5.05102 17.256 4.75185 17.2244 4.46268 17.1769L4.43185 17.1719C3.30435 16.9777 2.36852 16.4335 1.71268 15.6127C1.70813 15.6127 1.70634 15.6096 1.70396 15.6055C1.70242 15.6029 1.70063 15.5998 1.69768 15.5969C1.03852 14.7669 0.666016 13.651 0.666016 12.341V5.49602C0.666016 2.55769 2.55852 0.589355 5.36435 0.589355H12.6277ZM8.16652 6.01815C8.16652 7.14728 7.22175 8.08902 6.08722 8.08902C5.08996 8.08902 4.23967 7.3604 4.04911 6.41705C4.01761 6.27551 3.99985 6.12994 3.99985 5.97955C3.99985 4.84238 4.92362 3.92236 6.06542 3.92236C6.64681 3.92236 7.1733 4.16684 7.5504 4.55689C7.92911 4.93326 8.16652 5.45198 8.16652 6.01815Z" fill="white"/>
</svg>
