<svg width="14" height="14" viewBox="0 0 14 14" fill="none" xmlns="http://www.w3.org/2000/svg">
<path d="M9.38647 7L12.5688 3.81794C12.8853 3.50144 13.0631 3.07218 13.0631 2.62459C13.0631 2.177 12.8853 1.74774 12.5688 1.43125C12.2523 1.11476 11.8231 0.936951 11.3755 0.936951C10.9279 0.936951 10.4986 1.11476 10.1821 1.43125L7.00006 4.61359L3.818 1.43125C3.5015 1.11476 3.07225 0.936951 2.62465 0.936951C2.17706 0.936951 1.74781 1.11476 1.43131 1.43125C1.11482 1.74774 0.937012 2.177 0.937012 2.62459C0.937012 3.07218 1.11482 3.50144 1.43131 3.81794L4.61365 7L1.43131 10.1821C1.11482 10.4986 0.937012 10.9278 0.937012 11.3754C0.937012 11.823 1.11482 12.2523 1.43131 12.5687C1.74781 12.8852 2.17706 13.063 2.62465 13.063C3.07225 13.063 3.5015 12.8852 3.818 12.5687L7.00006 9.3864L10.1821 12.5687C10.4986 12.8852 10.9279 13.063 11.3755 13.063C11.8231 13.063 12.2523 12.8852 12.5688 12.5687C12.8853 12.2523 13.0631 11.823 13.0631 11.3754C13.0631 10.9278 12.8853 10.4986 12.5688 10.1821L9.38647 7Z" fill="white"/>
</svg>
