<svg width="18" height="18" viewBox="0 0 18 18" fill="none" xmlns="http://www.w3.org/2000/svg">
<path d="M11.3865 9L14.5688 5.81794C14.8853 5.50144 15.0631 5.07218 15.0631 4.62459C15.0631 4.177 14.8853 3.74774 14.5688 3.43125C14.2523 3.11476 13.8231 2.93695 13.3755 2.93695C12.9279 2.93695 12.4986 3.11476 12.1821 3.43125L9.00006 6.61359L5.818 3.43125C5.5015 3.11476 5.07225 2.93695 4.62465 2.93695C4.17706 2.93695 3.74781 3.11476 3.43131 3.43125C3.11482 3.74774 2.93701 4.177 2.93701 4.62459C2.93701 5.07218 3.11482 5.50144 3.43131 5.81794L6.61365 9L3.43131 12.1821C3.11482 12.4986 2.93701 12.9278 2.93701 13.3754C2.93701 13.823 3.11482 14.2523 3.43131 14.5687C3.74781 14.8852 4.17706 15.063 4.62465 15.063C5.07225 15.063 5.5015 14.8852 5.818 14.5687L9.00006 11.3864L12.1821 14.5687C12.4986 14.8852 12.9279 15.063 13.3755 15.063C13.8231 15.063 14.2523 14.8852 14.5688 14.5687C14.8853 14.2523 15.0631 13.823 15.0631 13.3754C15.0631 12.9278 14.8853 12.4986 14.5688 12.1821L11.3865 9Z" fill="white"/>
</svg>
