<svg width="22" height="17" viewBox="0 0 22 17" fill="none" xmlns="http://www.w3.org/2000/svg">
<path d="M18.3689 1.38219C16.9903 0.749358 15.5354 0.298091 14.0407 0.0396879C14.0271 0.0371548 14.013 0.0389681 14.0006 0.0448698C13.9881 0.0507714 13.9778 0.0604608 13.9711 0.0725594C13.7842 0.405083 13.5771 0.83879 13.4321 1.17964C11.7977 0.934923 10.1716 0.934923 8.57072 1.17964C8.42577 0.83117 8.21117 0.405083 8.02342 0.0725594C8.01647 0.0607364 8.00611 0.0512841 7.99371 0.0454361C7.9813 0.039588 7.96742 0.0376159 7.95387 0.0397767C6.45896 0.297579 5.00395 0.748807 3.62549 1.3821C3.61369 1.38714 3.60376 1.39571 3.59705 1.40664C0.840283 5.52522 0.0850389 9.54252 0.455573 13.51C0.45662 13.5197 0.459607 13.5291 0.464355 13.5377C0.469104 13.5462 0.475517 13.5537 0.483216 13.5597C2.30204 14.8955 4.06389 15.7064 5.79305 16.2438C5.80649 16.2479 5.82084 16.2477 5.83418 16.2433C5.84751 16.2389 5.85919 16.2306 5.86765 16.2194C6.27664 15.6608 6.64123 15.0718 6.95391 14.4525C6.95821 14.444 6.96066 14.4347 6.96111 14.4252C6.96156 14.4157 6.95999 14.4062 6.9565 14.3974C6.95302 14.3885 6.94771 14.3805 6.94091 14.3739C6.93411 14.3672 6.92598 14.3621 6.91705 14.3588C6.33866 14.1395 5.788 13.872 5.25824 13.5682C5.24858 13.5626 5.24047 13.5546 5.23462 13.545C5.22877 13.5355 5.22536 13.5246 5.22469 13.5135C5.22402 13.5023 5.22612 13.4911 5.2308 13.4809C5.23548 13.4707 5.24259 13.4619 5.25151 13.4551C5.36297 13.3715 5.47452 13.2847 5.58093 13.1969C5.59039 13.1891 5.60184 13.1841 5.61399 13.1825C5.62613 13.1808 5.6385 13.1826 5.64969 13.1876C9.1298 14.7765 12.8973 14.7765 16.3363 13.1876C16.3475 13.1823 16.36 13.1802 16.3723 13.1817C16.3846 13.1832 16.3963 13.1882 16.4059 13.196C16.5124 13.2837 16.6238 13.3715 16.7362 13.4551C16.7451 13.4618 16.7523 13.4706 16.757 13.4807C16.7618 13.4909 16.7639 13.502 16.7634 13.5132C16.7628 13.5243 16.7595 13.5352 16.7537 13.5448C16.748 13.5544 16.7399 13.5624 16.7303 13.5682C16.2004 13.8777 15.6453 14.1419 15.0708 14.358C15.0619 14.3614 15.0538 14.3666 15.0471 14.3734C15.0403 14.3801 15.0351 14.3882 15.0317 14.3972C15.0283 14.4061 15.0268 14.4156 15.0273 14.4252C15.0278 14.4347 15.0304 14.444 15.0348 14.4525C15.3541 15.0709 15.7187 15.66 16.1201 16.2185C16.1283 16.23 16.14 16.2387 16.1534 16.2432C16.1667 16.2478 16.1812 16.248 16.1947 16.2438C17.9322 15.7063 19.6941 14.8954 21.5129 13.5597C21.5207 13.554 21.5273 13.5467 21.532 13.5383C21.5368 13.5298 21.5398 13.5205 21.5406 13.5108C21.984 8.9239 20.798 4.93956 18.3966 1.40744C18.3907 1.39596 18.3809 1.38697 18.3689 1.3821V1.38219ZM7.47356 11.0942C6.42584 11.0942 5.5625 10.1323 5.5625 8.95092C5.5625 7.76968 6.4091 6.80773 7.47365 6.80773C8.54644 6.80773 9.40136 7.7781 9.38462 8.95101C9.38462 10.1323 8.53803 11.0942 7.47356 11.0942ZM14.5394 11.0942C13.4917 11.0942 12.6283 10.1323 12.6283 8.95092C12.6283 7.76968 13.4748 6.80773 14.5394 6.80773C15.6122 6.80773 16.4671 7.7781 16.4504 8.95101C16.4504 10.1323 15.6122 11.0942 14.5394 11.0942Z" fill="#BF86F9"/>
</svg>
