<svg width="47" height="33" viewBox="0 0 47 33" fill="none" xmlns="http://www.w3.org/2000/svg">
<path d="M10.5165 25.7799C20.6601 29.7385 29.2923 30.5096 39.0745 24.3479C39.0028 24.4554 37.0678 27.3221 31.9792 28.7913C33.0542 30.2605 34.5235 31.9447 34.5235 31.9447C37.7845 31.9447 40.9737 31.013 43.7329 29.2213C45.883 27.7879 47.1013 25.3153 46.8504 22.7353C46.4204 18.3276 45.3812 14.0275 43.7687 9.90669C41.7262 4.53158 36.8169 0.804775 31.1192 0.267221C30.6175 0.23137 30.2592 0.23137 30.0442 0.23137L29.4709 0.804668C36.0286 2.66807 39.2896 5.57062 39.3612 5.67818C29.2917 0.589667 17.3948 0.518072 7.25361 5.46318C7.25361 5.46318 10.4787 2.27392 17.6097 0.589668L17.1797 0.159668C16.4271 0.159668 15.7104 0.23137 14.958 0.338817C9.69031 1.23467 5.28276 4.85392 3.3835 9.83488C1.7351 14.135 0.660096 18.6501 0.265947 23.2369C0.0509466 25.6736 1.19765 28.0746 3.20435 29.4721C5.85605 31.228 9.00946 32.1597 12.1987 32.1597C12.1987 32.1597 13.4887 30.4754 14.7788 28.9704C9.94116 27.537 7.97031 24.6703 7.93446 24.5628L8.84488 25.0276C9.38914 25.3057 9.94712 25.5576 10.5165 25.7799ZM16.1405 22.6636C13.8113 22.5919 11.9837 20.6211 12.0554 18.2559C12.1271 16.0342 13.9188 14.2425 16.1405 14.1708C18.4698 14.2425 20.2973 16.2134 20.2256 18.5785C20.1181 20.8003 18.3622 22.592 16.1405 22.6636ZM30.7608 22.6636C28.4316 22.5919 26.604 20.6211 26.6757 18.2559C26.7474 16.0342 28.5391 14.2425 30.7608 14.1708C33.0901 14.2425 34.9176 16.2134 34.8459 18.5785C34.7744 20.8003 32.9825 22.592 30.7608 22.6636Z" fill="white"/>
</svg>
