<svg width="24" height="19" viewBox="0 0 24 19" fill="none" xmlns="http://www.w3.org/2000/svg">
<path d="M20.3176 1.8387C18.7879 1.13684 17.1475 0.619712 15.4324 0.323508C15.4012 0.31779 15.37 0.332087 15.3539 0.360633C15.1429 0.735868 14.9093 1.22534 14.7456 1.61009C12.9009 1.3339 11.0657 1.3339 9.25885 1.61009C9.09516 1.21681 8.85301 0.735868 8.64109 0.360633C8.62501 0.333024 8.59379 0.318727 8.56257 0.323508C6.84844 0.618727 5.2081 1.13585 3.67745 1.8387C3.66418 1.84441 3.65284 1.85393 3.64529 1.86631C0.533914 6.51466 -0.318461 11.0488 0.0996642 15.5267C0.101539 15.5486 0.113867 15.5695 0.130883 15.5829C2.18368 17.0904 4.17221 18.0056 6.12376 18.6123C6.15498 18.6218 6.18807 18.6104 6.20795 18.5846C6.66957 17.9542 7.08109 17.2895 7.43391 16.5904C7.45473 16.5495 7.43485 16.5009 7.39229 16.4847C6.73955 16.2371 6.11804 15.9352 5.52015 15.5924C5.47285 15.5648 5.46906 15.4972 5.5126 15.4648C5.63841 15.3705 5.76427 15.2724 5.88441 15.1734C5.90616 15.1553 5.93645 15.1515 5.96199 15.1629C9.88974 16.9562 14.142 16.9562 18.0234 15.1629C18.0489 15.1505 18.0792 15.1543 18.1019 15.1724C18.2221 15.2714 18.3479 15.3705 18.4747 15.4647C18.5182 15.4971 18.5153 15.5648 18.4681 15.5924C17.8702 15.9419 17.2486 16.2371 16.595 16.4838C16.5524 16.4999 16.5335 16.5495 16.5543 16.5904C16.9148 17.2885 17.3263 17.9532 17.7794 18.5837C17.7983 18.6103 17.8323 18.6218 17.8636 18.6122C19.8246 18.0056 21.8131 17.0904 23.8659 15.5828C23.8839 15.5695 23.8952 15.5495 23.8971 15.5276C24.3976 10.3507 23.0589 5.85373 20.3487 1.86724C20.3421 1.85393 20.3308 1.84441 20.3176 1.8387ZM8.02055 12.8001C6.83804 12.8001 5.86365 11.7145 5.86365 10.3811C5.86365 9.04788 6.8191 7.96221 8.02055 7.96221C9.23138 7.96221 10.1964 9.0574 10.1774 10.3811C10.1774 11.7145 9.22191 12.8001 8.02055 12.8001ZM15.9953 12.8001C14.8128 12.8001 13.8384 11.7145 13.8384 10.3811C13.8384 9.04788 14.7939 7.96221 15.9953 7.96221C17.2061 7.96221 18.1711 9.0574 18.1522 10.3811C18.1522 11.7145 17.2062 12.8001 15.9953 12.8001Z" fill="white"/>
</svg>
