<svg width="16" height="17" viewBox="0 0 16 17" fill="none" xmlns="http://www.w3.org/2000/svg">
<g clip-path="url(#clip0_133_333)">
<path d="M1.60001 9.7425C2.48367 9.7425 3.20002 9.02615 3.20002 8.14249C3.20002 7.25883 2.48367 6.54248 1.60001 6.54248C0.716349 6.54248 0 7.25883 0 8.14249C0 9.02615 0.716349 9.7425 1.60001 9.7425Z" fill="#CEC3D5"/>
<path d="M7.99991 9.7425C8.88358 9.7425 9.59992 9.02615 9.59992 8.14249C9.59992 7.25883 8.88358 6.54248 7.99991 6.54248C7.11625 6.54248 6.3999 7.25883 6.3999 8.14249C6.3999 9.02615 7.11625 9.7425 7.99991 9.7425Z" fill="#CEC3D5"/>
<path d="M14.4001 9.7425C15.2837 9.7425 16.0001 9.02615 16.0001 8.14249C16.0001 7.25883 15.2837 6.54248 14.4001 6.54248C13.5164 6.54248 12.8 7.25883 12.8 8.14249C12.8 9.02615 13.5164 9.7425 14.4001 9.7425Z" fill="#CEC3D5"/>
</g>
<defs>
<clipPath id="clip0_133_333">
<rect width="16" height="16" fill="white" transform="translate(0 0.142578)"/>
</clipPath>
</defs>
</svg>
