<svg width="20" height="21" viewBox="0 0 20 21" fill="none" xmlns="http://www.w3.org/2000/svg">
<g clip-path="url(#clip0_44_53)">
<path d="M3.33317 16.8096C2.42425 16.8096 1.6665 17.5673 1.6665 18.4762C1.6665 19.3852 2.42425 20.1429 3.33317 20.1429H16.6665C17.5754 20.1429 18.3332 19.3852 18.3332 18.4762C18.3332 17.5673 17.5754 16.8096 16.6665 16.8096H3.33317Z" fill="white"/>
<path d="M10.0197 15.1431C9.76938 15.1489 9.52974 15.0419 9.36698 14.8517L4.36698 9.01839C3.86127 8.42731 4.36937 7.52713 5.13684 7.65446L7.08912 7.97984C7.13969 7.98827 7.19148 7.98558 7.2409 7.97196C7.29032 7.95835 7.33619 7.93413 7.3753 7.901C7.41442 7.86786 7.44584 7.8266 7.4674 7.78009C7.48895 7.73358 7.50012 7.68294 7.50012 7.63167V2.64307C7.50012 1.27248 8.62953 0.143066 10.0001 0.143066C11.3707 0.143066 12.5001 1.27248 12.5001 2.64307V7.63167C12.5001 7.68294 12.5113 7.73358 12.5328 7.78009C12.5544 7.8266 12.5858 7.86786 12.6249 7.901C12.6641 7.93413 12.7099 7.95835 12.7593 7.97196C12.8088 7.98558 12.8606 7.98827 12.9111 7.97984L14.8634 7.65446C15.6309 7.52713 16.139 8.42731 15.6333 9.01839L10.6333 14.8517C10.4794 15.0315 10.2563 15.1375 10.0197 15.1431Z" fill="white"/>
</g>
<defs>
<clipPath id="clip0_44_53">
<rect width="20" height="20" fill="white" transform="translate(0 0.143066)"/>
</clipPath>
</defs>
</svg>
