<svg width="20" height="21" viewBox="0 0 20 21" fill="none" xmlns="http://www.w3.org/2000/svg">
<rect x="0.5" y="0.642578" width="19" height="19" rx="9.5" fill="#31263A"/>
<rect x="0.5" y="0.642578" width="19" height="19" rx="9.5" stroke="#CEC3D5"/>
<mask id="path-2-inside-1_44_101" fill="white">
<path fill-rule="evenodd" clip-rule="evenodd" d="M4 7.14258L10 13.1426L16 7.14258"/>
</mask>
<path d="M2.58579 8.55679C1.80474 7.77574 1.80474 6.50941 2.58579 5.72836C3.36683 4.94732 4.63317 4.94732 5.41421 5.72836L2.58579 8.55679ZM10 13.1426L11.4142 14.5568C10.6332 15.3378 9.36684 15.3378 8.58579 14.5568L10 13.1426ZM14.5858 5.72836C15.3668 4.94732 16.6332 4.94732 17.4142 5.72836C18.1953 6.50941 18.1953 7.77574 17.4142 8.55679L14.5858 5.72836ZM5.41421 5.72836L11.4142 11.7284L8.58579 14.5568L2.58579 8.55679L5.41421 5.72836ZM8.58579 11.7284L14.5858 5.72836L17.4142 8.55679L11.4142 14.5568L8.58579 11.7284Z" fill="#CEC3D5" mask="url(#path-2-inside-1_44_101)"/>
</svg>
