<svg width="50" height="50" viewBox="0 0 50 50" fill="none" xmlns="http://www.w3.org/2000/svg">
<path d="M24.7204 0.579956C19.0749 0.579853 13.6041 2.53724 9.2401 6.11847C4.87617 9.6998 1.88885 14.6835 0.787373 20.2203C-0.314105 25.7572 0.538292 31.5048 3.1994 36.4836C5.8605 41.4624 10.1655 45.3646 15.3811 47.5252C20.5967 49.6857 26.4001 49.971 31.8025 48.3324C37.2048 46.6939 41.8719 43.2328 45.0084 38.5389C48.145 33.8451 49.5571 28.2088 49.0039 22.5906C48.4509 16.9724 45.9668 11.7197 41.9751 7.72772C39.7092 5.4617 37.0192 3.66416 34.0586 2.43767C31.098 1.21129 27.9249 0.580059 24.7204 0.579956ZM11.1041 20.189C11.6313 19.5067 12.3038 18.9504 13.0729 18.5605C13.842 18.1706 14.6881 17.957 15.5502 17.935C16.5143 17.8977 17.4749 18.0728 18.3638 18.448C19.2528 18.8233 20.0483 19.3894 20.6941 20.1063C20.8222 20.2498 20.9209 20.4172 20.9844 20.5989C21.0479 20.7804 21.075 20.9729 21.0642 21.165C21.0533 21.3571 21.0047 21.5452 20.9212 21.7186C20.8376 21.8918 20.7208 22.047 20.5773 22.1753C20.4338 22.3035 20.2664 22.4021 20.0847 22.4656C19.903 22.5291 19.7107 22.5562 19.5186 22.5453C19.3265 22.5345 19.1383 22.4859 18.965 22.4023C18.7916 22.3188 18.6364 22.2019 18.5083 22.0584C18.1509 21.6647 17.711 21.3547 17.2201 21.1506C16.7291 20.9465 16.1992 20.8533 15.668 20.8776C15.2414 20.8784 14.8205 20.9752 14.4365 21.161C14.0526 21.3468 13.7154 21.6168 13.4502 21.9509C13.3136 22.1327 13.1367 22.2802 12.9334 22.3819C12.7301 22.4837 12.506 22.5368 12.2787 22.5371C12.0058 22.538 11.7382 22.4625 11.5059 22.3193C11.2736 22.1761 11.0859 21.9708 10.9641 21.7266C10.8423 21.4825 10.7911 21.2091 10.8165 20.9374C10.8417 20.6658 10.9424 20.4066 11.1072 20.189H11.1041ZM38.2487 29.3592C37.7848 32.6167 36.1611 35.5975 33.6758 37.7538C31.1906 39.9103 28.0107 41.0976 24.7204 41.0976C21.43 41.0976 18.25 39.9103 15.7648 37.7538C13.2796 35.5975 11.6558 32.6167 11.192 29.3592C11.156 29.1067 11.1794 28.8494 11.2603 28.6075C11.3413 28.3748 11.473 28.1629 11.6459 27.9871C11.8246 27.8084 12.037 27.6667 12.2706 27.5704C12.5043 27.474 12.7548 27.4249 13.0076 27.4257H36.433C36.6891 27.4236 36.9429 27.4732 37.1794 27.5714C37.4158 27.6696 37.6301 27.8146 37.8093 27.9975C37.9849 28.1762 38.117 28.3931 38.1949 28.6313C38.27 28.8678 38.2884 29.1185 38.2487 29.3633V29.3592ZM38.3852 22.166C38.2415 22.2939 38.0738 22.3921 37.8921 22.4551C37.7103 22.5182 37.518 22.5449 37.3259 22.5335C37.1339 22.5221 36.9459 22.4731 36.7728 22.3891C36.5997 22.3051 36.4449 22.1878 36.3173 22.0439C35.9596 21.6506 35.5197 21.3408 35.0287 21.1367C34.5379 20.9326 34.008 20.8393 33.477 20.8632C33.0488 20.8653 32.6267 20.9643 32.2423 21.1527C31.8579 21.341 31.5211 21.6139 31.257 21.9509C31.1205 22.1327 30.9436 22.2802 30.7403 22.3819C30.537 22.4837 30.3128 22.5368 30.0856 22.5371C29.8127 22.538 29.545 22.4625 29.3128 22.3193C29.0805 22.1761 28.8929 21.9708 28.771 21.7266C28.6492 21.4825 28.598 21.2091 28.6233 20.9374C28.6486 20.6658 28.7493 20.4066 28.9141 20.189C29.4407 19.5074 30.1125 18.9515 30.8805 18.5617C31.6486 18.1718 32.4939 17.9577 33.3549 17.935C34.3189 17.8991 35.2791 18.075 36.1677 18.4501C37.0564 18.8252 37.8522 19.3906 38.4988 20.1063C38.7574 20.3961 38.8905 20.7767 38.8685 21.1645C38.8466 21.5522 38.6716 21.9154 38.3821 22.1742L38.3852 22.166Z" fill="#BF86F9"/>
</svg>
