<svg width="24" height="25" viewBox="0 0 24 25" fill="none" xmlns="http://www.w3.org/2000/svg">
<g clip-path="url(#clip0_179_1005)">
<path d="M21.8542 7.61265C18.6843 2.40458 13.909 6.0279 13.909 6.0279C13.5993 6.26196 13.0282 6.45441 12.6402 6.4553L11.3611 6.4562C10.9731 6.45664 10.402 6.2642 10.0928 6.03013C10.0928 6.03013 5.31702 2.40592 2.14662 7.61399C-1.02289 12.8203 0.2544 18.4902 0.2544 18.4902C0.478172 19.8785 1.21572 20.8049 2.60759 20.6885C3.99542 20.5726 7.00784 16.9498 7.00784 16.9498C7.25667 16.6512 7.77806 16.4073 8.16519 16.4073L15.8334 16.406C16.221 16.406 16.7419 16.6499 16.9903 16.9484C16.9903 16.9484 20.0032 20.5713 21.3932 20.6872C22.7833 20.8036 23.5227 19.8763 23.7451 18.4889C23.7451 18.4889 25.0242 12.8198 21.8542 7.61265ZM9.11846 11.8518H7.47418V13.4365C7.47418 13.4365 7.12599 13.7024 6.58715 13.6957C6.0492 13.6876 5.80574 13.4057 5.80574 13.4057V11.8522H4.25276C4.25276 11.8522 4.05897 11.6535 4.00706 11.1303C3.95604 10.6072 4.22143 10.1842 4.22143 10.1842H5.86616V8.53996C5.86616 8.53996 6.2045 8.35871 6.69098 8.37258C7.17791 8.3878 7.5346 8.57084 7.5346 8.57084L7.52789 10.1838H9.08086C9.08086 10.1838 9.35208 10.532 9.37445 10.9527C9.39683 11.3738 9.11846 11.8518 9.11846 11.8518ZM16.6605 13.6581C15.9404 13.6581 15.3599 13.0758 15.3599 12.3566C15.3599 11.6361 15.9404 11.0552 16.6605 11.0552C17.3774 11.0552 17.9624 11.6361 17.9624 12.3566C17.9624 13.0763 17.3774 13.6581 16.6605 13.6581ZM16.6605 10.0773C15.9404 10.0773 15.3599 9.49547 15.3599 8.77626C15.3599 8.05572 15.9404 7.47481 16.6605 7.47481C17.3774 7.47481 17.9624 8.05572 17.9624 8.77626C17.9624 9.49592 17.3774 10.0773 16.6605 10.0773ZM19.9016 11.9995C19.1815 11.9995 18.601 11.4177 18.601 10.698C18.601 9.97792 19.1815 9.39656 19.9016 9.39656C20.6186 9.39656 21.2035 9.97792 21.2035 10.698C21.2035 11.4177 20.6186 11.9995 19.9016 11.9995Z" fill="#BF86F9"/>
</g>
<defs>
<clipPath id="clip0_179_1005">
<rect width="24" height="24" fill="white" transform="translate(0 0.75)"/>
</clipPath>
</defs>
</svg>
