<svg width="16" height="17" viewBox="0 0 16 17" fill="none" xmlns="http://www.w3.org/2000/svg">
<g clip-path="url(#clip0_22_559)">
<path fill-rule="evenodd" clip-rule="evenodd" d="M8.92984 11.6193V12.705H9.65123C10.1393 12.705 10.535 13.1007 10.535 13.5888C10.535 14.0768 10.1393 14.4726 9.65123 14.4726H8.92984V15.2934C8.92984 15.7815 8.53407 16.1773 8.04603 16.1773C7.55799 16.1773 7.16222 15.7815 7.16222 15.2934V14.4726H6.44055C5.95266 14.4726 5.55674 14.0767 5.55674 13.5888C5.55674 13.1009 5.95266 12.705 6.44055 12.705H7.16222V11.6193C4.4808 11.1918 2.46265 8.86162 2.46265 6.10609C2.46265 3.02719 4.9671 0.522705 8.04603 0.522705C11.1249 0.522705 13.6295 3.02716 13.6295 6.10609C13.6295 8.86169 11.6114 11.1918 8.92984 11.6193ZM4.23014 6.10609C4.23014 8.20982 5.94233 9.92182 8.046 9.92182C10.1498 9.92182 11.8619 8.20988 11.8619 6.10609C11.8619 4.00229 10.1497 2.29035 8.046 2.29035C5.94236 2.29035 4.23014 4.00236 4.23014 6.10609Z" fill="#BF86F9"/>
</g>
<defs>
<clipPath id="clip0_22_559">
<rect width="15.6545" height="15.6545" fill="white" transform="translate(0.21875 0.522705)"/>
</clipPath>
</defs>
</svg>
