<svg width="41" height="41" viewBox="0 0 41 41" fill="none" xmlns="http://www.w3.org/2000/svg">
<path d="M0.718018 37.6774V2.58857C0.718271 2.51244 0.742723 2.43807 0.788309 2.3748C0.833895 2.31152 0.898585 2.26215 0.974267 2.23288C1.04995 2.20361 1.13325 2.19573 1.21374 2.21024C1.29422 2.22476 1.36829 2.26101 1.42668 2.31446L21.1028 20.1321L1.42668 37.9515C1.36829 38.0049 1.29422 38.0412 1.21374 38.0557C1.13325 38.0702 1.04995 38.0623 0.974267 38.0331C0.898585 38.0038 0.833895 37.9544 0.788309 37.8911C0.742723 37.8279 0.718271 37.7535 0.718018 37.6774ZM29.3528 27.4534L4.6815 40.0747L4.66612 40.0827C4.24112 40.297 3.83727 39.7631 4.18535 39.4524L23.5249 22.2812L29.3528 27.4534ZM4.18727 0.811802C3.83727 0.501091 4.24112 -0.0328331 4.66804 0.18145L4.68343 0.189491L29.3528 12.8107L23.5249 17.9848L4.18727 0.811802ZM39.3125 22.3642L32.423 25.8874L25.9451 20.1321L32.423 14.3795L39.3125 17.9C41.1865 18.8616 41.1865 21.4026 39.3125 22.3642Z" fill="white"/>
</svg>
