<svg width="17" height="17" viewBox="0 0 17 17" fill="none" xmlns="http://www.w3.org/2000/svg">
<path d="M11.2689 8.32617L15.512 4.08342C15.934 3.66143 16.1711 3.08908 16.1711 2.49229C16.1711 1.89551 15.934 1.32316 15.512 0.901169C15.09 0.479177 14.5177 0.242104 13.9209 0.242104C13.3241 0.242104 12.7517 0.479177 12.3297 0.901169L8.087 5.14429L3.84425 0.901169C3.42225 0.479177 2.84991 0.242104 2.25312 0.242104C1.65633 0.242104 1.08399 0.479177 0.661995 0.901169C0.240003 1.32316 0.00292969 1.89551 0.00292969 2.49229C0.00292969 3.08908 0.240003 3.66143 0.661995 4.08342L4.90512 8.32617L0.661995 12.5689C0.240003 12.9909 0.00292969 13.5633 0.00292969 14.16C0.00292969 14.7568 0.240003 15.3292 0.661995 15.7512C1.08399 16.1732 1.65633 16.4102 2.25312 16.4102C2.84991 16.4102 3.42225 16.1732 3.84425 15.7512L8.087 11.508L12.3297 15.7512C12.7517 16.1732 13.3241 16.4102 13.9209 16.4102C14.5177 16.4102 15.09 16.1732 15.512 15.7512C15.934 15.3292 16.1711 14.7568 16.1711 14.16C16.1711 13.5633 15.934 12.9909 15.512 12.5689L11.2689 8.32617Z" fill="white"/>
</svg>
