<svg width="22" height="22" viewBox="0 0 22 22" fill="none" xmlns="http://www.w3.org/2000/svg">
<path d="M10.9999 0.510254C8.11149 0.510254 7.75088 0.523544 6.61678 0.574047C5.48444 0.627209 4.7136 0.805299 4.0358 1.06845C3.33673 1.33957 2.7431 1.70372 2.15212 2.2947C1.56114 2.88567 1.1961 3.47842 0.925868 4.17838C0.66272 4.85618 0.483744 5.62702 0.431469 6.75935C0.378308 7.89346 0.367676 8.25407 0.367676 11.1425C0.367676 14.0309 0.380966 14.3915 0.431469 15.5256C0.48463 16.6571 0.66272 17.4288 0.925868 18.1066C1.19699 18.8048 1.56114 19.3993 2.15212 19.9903C2.7431 20.5804 3.33584 20.9463 4.0358 21.2165C4.71449 21.4788 5.48533 21.6587 6.61678 21.7109C7.75088 21.7641 8.11149 21.7747 10.9999 21.7747C13.8883 21.7747 14.249 21.7614 15.3831 21.7109C16.5145 21.6578 17.2862 21.4788 17.964 21.2165C18.6622 20.9454 19.2567 20.5804 19.8477 19.9903C20.4378 19.3993 20.8037 18.8075 21.074 18.1066C21.3362 17.4288 21.5161 16.6571 21.5684 15.5256C21.6215 14.3915 21.6322 14.0309 21.6322 11.1425C21.6322 8.25407 21.6189 7.89346 21.5684 6.75935C21.5152 5.62791 21.3362 4.8553 21.074 4.17838C20.8028 3.47931 20.4378 2.88567 19.8477 2.2947C19.2567 1.70372 18.6649 1.33868 17.964 1.06845C17.2862 0.805299 16.5145 0.626323 15.3831 0.574047C14.249 0.520886 13.8883 0.510254 10.9999 0.510254ZM10.9999 2.42406C13.8378 2.42406 14.1763 2.43823 15.2971 2.48696C16.3338 2.5357 16.8964 2.70758 17.2703 2.85466C17.7682 3.04693 18.1209 3.27729 18.4948 3.64854C18.866 4.02067 19.0964 4.37419 19.2886 4.87213C19.4339 5.24603 19.6076 5.80865 19.6546 6.8453C19.7051 7.967 19.7166 8.30369 19.7166 11.1425C19.7166 13.9813 19.7033 14.3189 19.651 15.4397C19.597 16.4763 19.4242 17.039 19.278 17.4129C19.0795 17.9108 18.8536 18.2634 18.4815 18.6373C18.1102 19.0086 17.7514 19.2389 17.2588 19.4312C16.8866 19.5765 16.3152 19.7502 15.2785 19.7971C14.1497 19.8476 13.8175 19.8592 10.9733 19.8592C8.12832 19.8592 7.79607 19.8459 6.66816 19.7936C5.63063 19.7395 5.05915 19.5668 4.68702 19.4206C4.18288 19.2221 3.83644 18.9962 3.4652 18.624C3.09219 18.2528 2.85385 17.894 2.66778 17.4013C2.52159 17.0292 2.3497 16.4577 2.29566 15.4211C2.25578 14.3047 2.24161 13.96 2.24161 11.1292C2.24161 8.29748 2.25578 7.95194 2.29566 6.82226C2.3497 5.78562 2.52159 5.21502 2.66778 4.84289C2.85385 4.33786 3.09219 3.99231 3.4652 3.6193C3.83644 3.24806 4.18288 3.00883 4.68702 2.82365C5.05915 2.67657 5.61823 2.5038 6.65487 2.45064C7.78455 2.41077 8.11681 2.39748 10.96 2.39748L10.9999 2.42406ZM10.9999 5.68284C7.98302 5.68284 5.54026 8.12825 5.54026 11.1425C5.54026 14.1594 7.98568 16.6021 10.9999 16.6021C14.0168 16.6021 16.4596 14.1567 16.4596 11.1425C16.4596 8.1256 14.0142 5.68284 10.9999 5.68284ZM10.9999 14.6866C9.04181 14.6866 7.45584 13.1006 7.45584 11.1425C7.45584 9.18439 9.04181 7.59841 10.9999 7.59841C12.958 7.59841 14.544 9.18439 14.544 11.1425C14.544 13.1006 12.958 14.6866 10.9999 14.6866ZM17.9516 5.46754C17.9516 6.17192 17.3793 6.7434 16.6758 6.7434C15.9714 6.7434 15.3999 6.17104 15.3999 5.46754C15.3999 4.76404 15.9723 4.19255 16.6758 4.19255C17.3784 4.19167 17.9516 4.76404 17.9516 5.46754Z" fill="#BF86F9"/>
</svg>
