<svg width="14" height="14" viewBox="0 0 14 14" fill="none" xmlns="http://www.w3.org/2000/svg">
<g clip-path="url(#clip0_22_73)">
<path d="M3.79265 3.74609H3.61711L3.28906 5.38672H4.1207L3.79265 3.74609Z" fill="#856996"/>
<path d="M10.4277 7.02734C10.6048 7.5031 10.8404 7.88821 11.1011 8.21589C11.3618 7.88821 11.6247 7.50307 11.8018 7.02734H10.4277Z" fill="#856996"/>
<path d="M12.77 2.48828H7.67628L8.73837 11.0108C8.75715 11.3593 8.66186 11.6875 8.43436 11.9444L6.63574 14H12.77C13.4485 14 14.0004 13.448 14.0004 12.7695V3.74609C14.0004 3.06759 13.4485 2.48828 12.77 2.48828ZM12.77 7.02734H12.6604C12.427 7.7761 12.0569 8.36199 11.6723 8.82388C11.9736 9.09934 12.2958 9.32531 12.6161 9.57841C12.7928 9.7198 12.8216 9.97773 12.6798 10.1548C12.5387 10.3316 12.2797 10.3602 12.1035 10.2185C11.7554 9.94375 11.4287 9.71378 11.102 9.41399C10.7753 9.71378 10.4759 9.94375 10.1279 10.2185C9.95158 10.3602 9.69264 10.3316 9.55149 10.1548C9.40968 9.97773 9.43853 9.7198 9.61517 9.57841C9.9355 9.32531 10.2304 9.09934 10.5317 8.82388C10.147 8.36202 9.80425 7.77612 9.5709 7.02734H9.46136C9.23466 7.02734 9.05121 6.84389 9.05121 6.61719C9.05121 6.39048 9.23466 6.20703 9.46136 6.20703H10.6918V5.79688C10.6918 5.57017 10.8753 5.38672 11.102 5.38672C11.3287 5.38672 11.5121 5.57017 11.5121 5.79688V6.20703H12.77C12.9967 6.20703 13.1801 6.39048 13.1801 6.61719C13.1801 6.84389 12.9967 7.02734 12.77 7.02734Z" fill="#856996"/>
<path d="M6.67636 1.07786C6.59985 0.463422 6.07474 0 5.45552 0H1.23047C0.551961 0 0 0.551961 0 1.23047V10.3086C0 10.9871 0.551961 11.5391 1.23047 11.5391C3.68238 11.5391 5.44625 11.5391 7.69866 11.5391C7.81832 11.4023 7.91861 11.3166 7.92285 11.1381C7.92389 11.0934 6.68191 1.12227 6.67636 1.07786ZM5.02972 7.83964C4.81223 7.88441 4.59192 7.7432 4.54707 7.518L4.28493 6.20703H3.12525L2.86311 7.518C2.81906 7.73989 2.60515 7.88569 2.38047 7.83964C2.15857 7.79518 2.01436 7.5793 2.05882 7.357L2.87911 3.25544C2.91755 3.06398 3.0858 2.92578 3.28125 2.92578H4.12891C4.32436 2.92578 4.49261 3.06398 4.53105 3.25544L5.35136 7.357C5.39582 7.5793 5.25164 7.79518 5.02972 7.83964Z" fill="#856996"/>
<path d="M4.79199 12.3594L4.86238 12.9221C4.9093 13.299 5.15971 13.6833 5.57162 13.8752C6.34895 13.0195 5.87866 13.5372 6.94862 12.3594H4.79199Z" fill="#856996"/>
</g>
<defs>
<clipPath id="clip0_22_73">
<rect width="14" height="14" fill="white"/>
</clipPath>
</defs>
</svg>
