<svg width="8" height="10" viewBox="0 0 8 10" fill="none" xmlns="http://www.w3.org/2000/svg">
<path d="M0.526912 5.99083C0.569289 6.03433 0.729298 6.22033 0.878349 6.37333C1.75219 7.33558 4.03178 8.91058 5.22491 9.39133C5.40611 9.46858 5.86422 9.63208 6.10899 9.64258C6.34352 9.64258 6.5671 9.58858 6.78044 9.47908C7.0464 9.32608 7.25974 9.08533 7.37664 8.80108C7.4519 8.60383 7.5688 8.01358 7.5688 8.00308C7.6857 7.35733 7.75 6.30808 7.75 5.14858C7.75 4.04383 7.6857 3.03733 7.58999 2.38183C7.57903 2.37133 7.46213 1.63783 7.33427 1.38658C7.09973 0.927578 6.64162 0.642578 6.15136 0.642578H6.10899C5.7897 0.653828 5.11824 0.938828 5.11824 0.949328C3.98941 1.43083 1.76242 2.92858 0.867389 3.92383C0.867389 3.92383 0.615319 4.17958 0.505723 4.33933C0.334754 4.56883 0.25 4.85308 0.25 5.13733C0.25 5.45458 0.345714 5.75008 0.526912 5.99083" fill="#BF86F9"/>
</svg>
