<svg width="44" height="45" viewBox="0 0 44 45" fill="none" xmlns="http://www.w3.org/2000/svg">
<rect x="-0.5" y="0.5" width="43" height="43" rx="21.5" transform="matrix(-1 -1.9284e-09 -1.9284e-09 1 43 0.142578)" fill="#392E42"/>
<rect x="-0.5" y="0.5" width="43" height="43" rx="21.5" transform="matrix(-1 -1.9284e-09 -1.9284e-09 1 43 0.142578)" stroke="url(#paint0_linear_44_104)"/>
<g clip-path="url(#clip0_44_104)">
<path d="M20.3004 24.0323C20.3199 24.0301 20.3304 24.028 20.341 24.028C20.37 24.0275 20.399 24.028 20.4286 24.028C23.3104 24.028 26.1927 24.0275 29.0745 24.0286C29.3114 24.0286 29.5424 23.9974 29.7671 23.9204C30.0098 23.8376 30.2255 23.7099 30.417 23.5396C30.5842 23.3903 30.7203 23.2167 30.8237 23.0184C30.9166 22.8411 30.9778 22.6528 31.0115 22.455C31.0353 22.3173 31.0411 22.1791 31.0358 22.0404C31.0284 21.8378 30.9846 21.6416 30.9124 21.4527C30.8206 21.2127 30.6824 21.0017 30.5004 20.8218C30.2551 20.5792 29.9644 20.413 29.6289 20.3275C29.4506 20.2816 29.2692 20.26 29.0851 20.2595C28.6794 20.259 28.2737 20.2579 27.8681 20.2579C25.3803 20.2584 22.8931 20.259 20.4054 20.2595C20.379 20.2595 20.3521 20.2595 20.3199 20.2595C20.3579 20.1946 20.4006 20.1434 20.4481 20.096C20.6322 19.9124 20.8158 19.7283 20.9993 19.5447C21.2272 19.3163 21.4551 19.0879 21.683 18.8589C22.0797 18.4601 22.4764 18.0613 22.8731 17.6625C22.949 17.5866 23.0276 17.5127 23.0994 17.4336C23.3014 17.211 23.4391 16.952 23.5198 16.6624C23.5768 16.4588 23.6068 16.2509 23.5968 16.0394C23.5762 15.6042 23.4386 15.2128 23.1574 14.8746C22.9754 14.6557 22.757 14.4848 22.5049 14.3561C22.3165 14.2595 22.1161 14.1984 21.9061 14.1667C21.8043 14.1514 21.702 14.1403 21.5991 14.143C21.367 14.1493 21.1428 14.1947 20.925 14.2754C20.6997 14.3592 20.5008 14.4864 20.3173 14.6383C20.2809 14.6684 20.2476 14.7016 20.2144 14.7348C18.731 16.2177 17.2477 17.701 15.7643 19.1844C14.9008 20.0479 14.0367 20.9115 13.1737 21.7756C13.1262 21.823 13.0792 21.8721 13.0407 21.9264C12.9326 22.0783 12.9373 22.2224 13.0518 22.3711C13.0887 22.4186 13.1299 22.4634 13.1726 22.5062C13.7698 23.1038 14.3674 23.701 14.9646 24.2986C16.2227 25.5573 17.4798 26.8159 18.7379 28.0746C19.2084 28.5451 19.6811 29.0141 20.1516 29.4846C20.3547 29.6877 20.58 29.8581 20.8437 29.9742C21.0062 30.0454 21.175 30.095 21.3512 30.1192C21.4646 30.1351 21.5775 30.1467 21.692 30.1419C21.9863 30.1298 22.2669 30.0633 22.5291 29.9262C22.9174 29.7236 23.2049 29.4213 23.3948 29.0283C23.4955 28.82 23.5609 28.5995 23.5873 28.3684C23.5968 28.284 23.6095 28.1991 23.6079 28.1147C23.6042 27.8873 23.5646 27.6663 23.4797 27.4537C23.3731 27.1873 23.2086 26.961 23.0076 26.759C22.3925 26.1413 21.7779 25.5235 21.1629 24.9058C20.8891 24.631 20.6153 24.3567 20.3415 24.0824C20.3294 24.0687 20.3178 24.0528 20.3004 24.0323Z" fill="#BF86F9"/>
</g>
<defs>
<linearGradient id="paint0_linear_44_104" x1="-3.45428" y1="-27.4471" x2="54.989" y2="-19.0285" gradientUnits="userSpaceOnUse">
<stop stop-color="#BF86F9" stop-opacity="0.52"/>
<stop offset="1" stop-color="#BF86F9" stop-opacity="0.1"/>
</linearGradient>
<clipPath id="clip0_44_104">
<rect width="18" height="16.0004" fill="white" transform="matrix(-1 0 0 1 31 14.1426)"/>
</clipPath>
</defs>
</svg>
