<svg width="28" height="29" viewBox="0 0 28 29" fill="none" xmlns="http://www.w3.org/2000/svg">
<path fill-rule="evenodd" clip-rule="evenodd" d="M19.7628 3.64258C21.3273 3.64258 22.8323 4.26091 23.9395 5.37041C25.0478 6.47758 25.6673 7.97091 25.6673 9.53425V18.7509C25.6673 22.0059 23.019 24.6426 19.7628 24.6426H8.23732C4.98115 24.6426 2.33398 22.0059 2.33398 18.7509V9.53425C2.33398 6.27924 4.96948 3.64258 8.23732 3.64258H19.7628ZM21.619 11.2726L21.7123 11.1792C21.9912 10.8409 21.9912 10.3509 21.6995 10.0126C21.5373 9.83874 21.3145 9.73258 21.0823 9.70924C20.8373 9.69641 20.604 9.77924 20.4278 9.94258L15.1673 14.1426C14.4907 14.7037 13.5212 14.7037 12.834 14.1426L7.58398 9.94258C7.22115 9.67424 6.71948 9.70924 6.41732 10.0242C6.10232 10.3392 6.06732 10.8409 6.33448 11.1909L6.48732 11.3426L11.7957 15.4842C12.449 15.9976 13.2412 16.2776 14.0707 16.2776C14.8978 16.2776 15.704 15.9976 16.3562 15.4842L21.619 11.2726Z" fill="white"/>
</svg>
