<svg width="18" height="19" viewBox="0 0 18 19" fill="none" xmlns="http://www.w3.org/2000/svg">
<g clip-path="url(#clip0_184_275)">
<path d="M14.7602 9.96879C14.7602 9.60879 14.4849 9.3335 14.1249 9.3335C13.7649 9.3335 13.4896 9.60879 13.4896 9.96879C13.4896 12.4464 11.4779 14.4582 9.00023 14.4582C6.52259 14.4582 4.51082 12.4464 4.51082 9.96879C4.51082 9.60879 4.23553 9.3335 3.87553 9.3335C3.51553 9.3335 3.24023 9.60879 3.24023 9.96879C3.24023 12.9123 5.44259 15.39 8.36494 15.7076V17.4017H6.05671C5.69671 17.4017 5.42141 17.677 5.42141 18.037C5.42141 18.397 5.69671 18.6723 6.05671 18.6723H11.9438C12.3038 18.6723 12.5791 18.397 12.5791 18.037C12.5791 17.677 12.3038 17.4017 11.9438 17.4017H9.63553V15.7076C12.5579 15.39 14.7602 12.9123 14.7602 9.96879Z" fill="white"/>
<path d="M8.99936 0.672363C7.05113 0.672363 5.46289 2.2606 5.46289 4.20883V9.94766C5.46289 11.9171 7.05113 13.4841 8.99936 13.5053C10.9476 13.5053 12.5358 11.9171 12.5358 9.96883V4.20883C12.5358 2.2606 10.9476 0.672363 8.99936 0.672363Z" fill="white"/>
</g>
<defs>
<clipPath id="clip0_184_275">
<rect width="18" height="18" fill="white" transform="translate(0 0.672363)"/>
</clipPath>
</defs>
</svg>
