<svg width="28" height="29" viewBox="0 0 28 29" fill="none" xmlns="http://www.w3.org/2000/svg">
<path fill-rule="evenodd" clip-rule="evenodd" d="M21.8251 10.4051C21.8251 11.8704 22.2124 12.734 23.0646 13.7293C23.7104 14.4625 23.9168 15.4037 23.9168 16.4248C23.9168 17.4447 23.5817 18.4129 22.9104 19.199C22.0315 20.1414 20.792 20.743 19.5269 20.8476C17.6938 21.0038 15.8594 21.1354 14.0007 21.1354C12.1409 21.1354 10.3077 21.0567 8.47454 20.8476C7.20836 20.743 5.96885 20.1414 5.09111 19.199C4.41975 18.4129 4.0835 17.4447 4.0835 16.4248C4.0835 15.4037 4.29105 14.4625 4.93573 13.7293C5.81464 12.734 6.1764 11.8704 6.1764 10.4051V9.90809C6.1764 7.9458 6.66571 6.66268 7.67332 5.40658C9.1714 3.57472 11.5727 2.47607 13.9486 2.47607H14.0529C16.4798 2.47607 18.9588 3.6276 20.4314 5.53818C21.3868 6.76843 21.8251 7.99751 21.8251 9.90809V10.4051ZM10.5861 23.547C10.5861 22.9595 11.1253 22.6905 11.6239 22.5753C12.2071 22.4519 15.761 22.4519 16.3442 22.5753C16.8428 22.6905 17.382 22.9595 17.382 23.547C17.353 24.1064 17.0248 24.6022 16.5715 24.9171C15.9836 25.3754 15.2937 25.6656 14.5725 25.7702C14.1736 25.8219 13.7817 25.8231 13.3968 25.7702C12.6744 25.6656 11.9845 25.3754 11.3978 24.9159C10.9432 24.6022 10.6151 24.1064 10.5861 23.547Z" fill="white"/>
</svg>
