<svg width="34" height="28" viewBox="0 0 34 28" fill="none" xmlns="http://www.w3.org/2000/svg">
<path fill-rule="evenodd" clip-rule="evenodd" d="M10.4956 13.9224C10.4956 17.478 13.4062 20.3709 16.9997 20.3709C20.5769 20.3709 23.4875 17.478 23.4875 13.9224C23.4875 10.3507 20.5769 7.4578 16.9997 7.4578C13.4062 7.4578 10.4956 10.3507 10.4956 13.9224ZM26.5607 3.99921C29.4062 6.19719 31.8289 9.41335 33.5688 13.4376C33.6989 13.7447 33.6989 14.1002 33.5688 14.3911C30.0891 22.4396 23.894 27.2558 16.9997 27.2558H16.9834C10.1054 27.2558 3.91024 22.4396 0.430569 14.3911C0.300487 14.1002 0.300487 13.7447 0.430569 13.4376C3.91024 5.38911 10.1054 0.589111 16.9834 0.589111H16.9997C20.4468 0.589111 23.7151 1.78507 26.5607 3.99921ZM17.0016 17.9431C19.2293 17.9431 21.0504 16.133 21.0504 13.9189C21.0504 11.6886 19.2293 9.87848 17.0016 9.87848C16.8065 9.87848 16.6114 9.89465 16.4325 9.92697C16.3675 11.7047 14.9041 13.127 13.0992 13.127H13.0179C12.9691 13.3856 12.9366 13.6441 12.9366 13.9189C12.9366 16.133 14.7577 17.9431 17.0016 17.9431Z" fill="white"/>
</svg>
