<svg width="8" height="10" viewBox="0 0 8 10" fill="none" xmlns="http://www.w3.org/2000/svg">
<path d="M7.47309 5.99083C7.43071 6.03433 7.2707 6.22033 7.12165 6.37333C6.24781 7.33558 3.96822 8.91058 2.77509 9.39133C2.59389 9.46858 2.13578 9.63208 1.89101 9.64258C1.65648 9.64258 1.4329 9.58858 1.21956 9.47908C0.953605 9.32608 0.740258 9.08533 0.623356 8.80108C0.5481 8.60383 0.431198 8.01358 0.431198 8.00308C0.314296 7.35733 0.25 6.30808 0.25 5.14858C0.25 4.04383 0.314296 3.03733 0.41001 2.38183C0.420969 2.37133 0.537871 1.63783 0.665733 1.38658C0.900268 0.927578 1.35838 0.642578 1.84864 0.642578H1.89101C2.2103 0.653828 2.88176 0.938828 2.88176 0.949328C4.01059 1.43083 6.23758 2.92858 7.13261 3.92383C7.13261 3.92383 7.38468 4.17958 7.49428 4.33933C7.66525 4.56883 7.75 4.85308 7.75 5.13733C7.75 5.45458 7.65429 5.75008 7.47309 5.99083" fill="#BF86F9"/>
</svg>
