<svg width="44" height="45" viewBox="0 0 44 45" fill="none" xmlns="http://www.w3.org/2000/svg">
<rect x="0.499512" y="0.642578" width="43" height="43" rx="21.5" fill="#392E42"/>
<rect x="0.499512" y="0.642578" width="43" height="43" rx="21.5" stroke="url(#paint0_linear_44_189)"/>
<g clip-path="url(#clip0_44_189)">
<path d="M23.6991 24.0323C23.6796 24.0301 23.6691 24.028 23.6585 24.028C23.6295 24.0275 23.6005 24.028 23.5709 24.028C20.6891 24.028 17.8068 24.0275 14.925 24.0286C14.6882 24.0286 14.4571 23.9974 14.2324 23.9204C13.9897 23.8376 13.774 23.7099 13.5825 23.5396C13.4153 23.3903 13.2792 23.2167 13.1758 23.0184C13.0829 22.8411 13.0217 22.6528 12.988 22.455C12.9642 22.3173 12.9584 22.1791 12.9637 22.0404C12.9711 21.8378 13.0149 21.6416 13.0872 21.4527C13.1789 21.2127 13.3171 21.0017 13.4991 20.8218C13.7444 20.5792 14.0351 20.413 14.3706 20.3275C14.5489 20.2816 14.7304 20.26 14.9145 20.2595C15.3201 20.259 15.7258 20.2579 16.1314 20.2579C18.6192 20.2584 21.1064 20.259 23.5942 20.2595C23.6205 20.2595 23.6474 20.2595 23.6796 20.2595C23.6416 20.1946 23.5989 20.1434 23.5514 20.096C23.3673 19.9124 23.1838 19.7283 23.0002 19.5447C22.7723 19.3163 22.5444 19.0879 22.3165 18.8589C21.9198 18.4601 21.5231 18.0613 21.1265 17.6625C21.0505 17.5866 20.9719 17.5127 20.9002 17.4336C20.6981 17.211 20.5604 16.952 20.4797 16.6624C20.4228 16.4588 20.3927 16.2509 20.4027 16.0394C20.4233 15.6042 20.561 15.2128 20.8421 14.8746C21.0241 14.6557 21.2425 14.4848 21.4947 14.3561C21.683 14.2595 21.8834 14.1984 22.0934 14.1667C22.1952 14.1514 22.2975 14.1403 22.4004 14.143C22.6325 14.1493 22.8567 14.1947 23.0746 14.2754C23.2998 14.3592 23.4987 14.4864 23.6823 14.6383C23.7187 14.6684 23.7519 14.7016 23.7851 14.7348C25.2685 16.2177 26.7519 17.701 28.2352 19.1844C29.0988 20.0479 29.9628 20.9115 30.8258 21.7756C30.8733 21.823 30.9203 21.8721 30.9588 21.9264C31.0669 22.0783 31.0622 22.2224 30.9477 22.3711C30.9108 22.4186 30.8696 22.4634 30.8269 22.5062C30.2297 23.1038 29.6321 23.701 29.0349 24.2986C27.7768 25.5573 26.5197 26.8159 25.2616 28.0746C24.7911 28.5451 24.3184 29.0141 23.8479 29.4846C23.6448 29.6877 23.4196 29.8581 23.1558 29.9742C22.9933 30.0454 22.8245 30.095 22.6483 30.1192C22.5349 30.1351 22.422 30.1467 22.3076 30.1419C22.0132 30.1298 21.7326 30.0633 21.4704 29.9262C21.0821 29.7236 20.7946 29.4213 20.6047 29.0283C20.504 28.82 20.4386 28.5995 20.4122 28.3684C20.4027 28.284 20.39 28.1991 20.3916 28.1147C20.3953 27.8873 20.4349 27.6663 20.5198 27.4537C20.6264 27.1873 20.791 26.961 20.9919 26.759C21.607 26.1413 22.2216 25.5235 22.8367 24.9058C23.1104 24.631 23.3842 24.3567 23.658 24.0824C23.6701 24.0687 23.6817 24.0528 23.6991 24.0323Z" fill="#BF86F9"/>
</g>
<defs>
<linearGradient id="paint0_linear_44_189" x1="-3.45477" y1="-27.3045" x2="54.9885" y2="-18.8859" gradientUnits="userSpaceOnUse">
<stop stop-color="#BF86F9" stop-opacity="0.52"/>
<stop offset="1" stop-color="#BF86F9" stop-opacity="0.1"/>
</linearGradient>
<clipPath id="clip0_44_189">
<rect width="18.0749" height="16.0004" fill="white" transform="translate(12.9619 14.1426)"/>
</clipPath>
</defs>
</svg>
