<svg width="16" height="9" viewBox="0 0 16 9" fill="none" xmlns="http://www.w3.org/2000/svg">
<mask id="path-1-inside-1_179_1001" fill="white">
<path fill-rule="evenodd" clip-rule="evenodd" d="M16 0.75L8 8.75L0 0.75"/>
</mask>
<path d="M18.1213 2.87132C19.2929 1.69975 19.2929 -0.199747 18.1213 -1.37132C16.9497 -2.54289 15.0503 -2.54289 13.8787 -1.37132L18.1213 2.87132ZM8 8.75L5.87868 10.8713C7.05025 12.0429 8.94975 12.0429 10.1213 10.8713L8 8.75ZM2.12132 -1.37132C0.949747 -2.54289 -0.949747 -2.54289 -2.12132 -1.37132C-3.29289 -0.199747 -3.29289 1.69975 -2.12132 2.87132L2.12132 -1.37132ZM13.8787 -1.37132L5.87868 6.62868L10.1213 10.8713L18.1213 2.87132L13.8787 -1.37132ZM10.1213 6.62868L2.12132 -1.37132L-2.12132 2.87132L5.87868 10.8713L10.1213 6.62868Z" fill="#BF86F9" mask="url(#path-1-inside-1_179_1001)"/>
</svg>
