<svg width="18" height="18" viewBox="0 0 18 18" fill="none" xmlns="http://www.w3.org/2000/svg">
<path d="M9.00014 0.34259C6.96421 0.342553 4.99126 1.04845 3.41744 2.33997C1.84365 3.63152 0.766324 5.4288 0.369093 7.42558C-0.0281369 9.42236 0.279266 11.4951 1.23895 13.2907C2.19864 15.0862 3.75116 16.4935 5.63209 17.2726C7.51301 18.0518 9.60592 18.1547 11.5542 17.5637C13.5025 16.9728 15.1856 15.7247 16.3167 14.0319C17.4479 12.3391 17.9571 10.3065 17.7576 8.28037C17.5582 6.25425 16.6623 4.35998 15.2228 2.92032C14.4056 2.10311 13.4355 1.45486 12.3678 1.01255C11.3001 0.570272 10.1558 0.342628 9.00014 0.34259ZM4.08967 7.41428C4.2798 7.16822 4.52232 6.96761 4.79967 6.827C5.07702 6.68638 5.38218 6.60934 5.69305 6.6014C6.04077 6.58794 6.38717 6.65111 6.70774 6.78643C7.02834 6.92174 7.31524 7.1259 7.54814 7.38445C7.59434 7.43621 7.62991 7.49658 7.65284 7.56209C7.67574 7.62757 7.68551 7.69696 7.68159 7.76625C7.67768 7.83553 7.66015 7.90335 7.63002 7.96589C7.5999 8.02838 7.55776 8.08435 7.506 8.13059C7.45425 8.17683 7.39388 8.2124 7.32836 8.23529C7.26285 8.25819 7.19349 8.26796 7.12421 8.26404C7.05493 8.26013 6.98706 8.2426 6.92457 8.21247C6.86204 8.18234 6.80607 8.14021 6.75987 8.08845C6.63096 7.94646 6.47234 7.83467 6.2953 7.76106C6.11821 7.68746 5.92711 7.65386 5.73556 7.66262C5.58171 7.66288 5.42991 7.69782 5.29142 7.76483C5.15297 7.83184 5.03138 7.9292 4.93573 8.04967C4.88648 8.11523 4.82268 8.16844 4.74937 8.20513C4.67606 8.24182 4.59522 8.26098 4.51326 8.2611C4.41486 8.26139 4.31832 8.23417 4.23457 8.18253C4.15078 8.13089 4.0831 8.05687 4.03918 7.96879C3.99525 7.88076 3.97679 7.78217 3.98593 7.68418C3.99503 7.58622 4.03135 7.49274 4.09078 7.41428H4.08967ZM13.8789 10.7214C13.7116 11.8961 13.1261 12.9711 12.2298 13.7488C11.3335 14.5264 10.1868 14.9546 9.00014 14.9546C7.81352 14.9546 6.66672 14.5264 5.77047 13.7488C4.87421 12.9711 4.28863 11.8961 4.12136 10.7214C4.10838 10.6303 4.11681 10.5375 4.14597 10.4503C4.1752 10.3663 4.22271 10.2899 4.28506 10.2266C4.34949 10.1621 4.42608 10.111 4.51035 10.0762C4.59462 10.0415 4.68497 10.0238 4.77614 10.0241H13.2241C13.3165 10.0233 13.408 10.0412 13.4933 10.0766C13.5786 10.112 13.6558 10.1643 13.7204 10.2303C13.7838 10.2947 13.8314 10.3729 13.8595 10.4589C13.8866 10.5441 13.8932 10.6346 13.8789 10.7229V10.7214ZM13.9281 8.12723C13.8763 8.17336 13.8159 8.20878 13.7503 8.23153C13.6848 8.25427 13.6154 8.26389 13.5461 8.25979C13.4769 8.25569 13.4091 8.23802 13.3467 8.2077C13.2842 8.17742 13.2284 8.1351 13.1824 8.08323C13.0534 7.94139 12.8947 7.82967 12.7177 7.75607C12.5407 7.68246 12.3496 7.64879 12.1581 7.6574C12.0037 7.65819 11.8514 7.69387 11.7128 7.76181C11.5742 7.82971 11.4527 7.92815 11.3575 8.04967C11.3082 8.11523 11.2444 8.16844 11.1711 8.20513C11.0978 8.24182 11.017 8.26098 10.935 8.2611C10.8366 8.26139 10.7401 8.23417 10.6563 8.18253C10.5725 8.13089 10.5049 8.05687 10.4609 7.96879C10.417 7.88076 10.3986 7.78217 10.4077 7.68418C10.4168 7.58622 10.4531 7.49274 10.5125 7.41428C10.7025 7.16848 10.9447 6.96798 11.2217 6.82741C11.4987 6.68679 11.8035 6.60961 12.114 6.6014C12.4617 6.58846 12.808 6.65189 13.1285 6.78717C13.4489 6.92245 13.7359 7.12634 13.9691 7.38445C14.0624 7.48897 14.1104 7.62623 14.1025 7.76606C14.0946 7.90589 14.0314 8.03688 13.927 8.13022L13.9281 8.12723Z" fill="white"/>
</svg>
