<svg width="18" height="21" viewBox="0 0 18 21" fill="none" xmlns="http://www.w3.org/2000/svg">
<path d="M17.7763 5.1503C16.6331 5.1503 15.5783 4.7716 14.7313 4.13272C13.7599 3.40034 13.062 2.32603 12.8155 1.08779C12.7544 0.781846 12.7216 0.466124 12.7185 0.142578H9.45287V9.06572L9.44896 13.9533C9.44896 15.26 8.59804 16.368 7.41848 16.7577C7.07616 16.8707 6.70645 16.9243 6.32148 16.9032C5.83009 16.8762 5.36962 16.7279 4.96939 16.4885C4.11768 15.9791 3.54023 15.055 3.52458 13.9979C3.49993 12.3458 4.83559 10.9988 6.48657 10.9988C6.81247 10.9988 7.12545 11.052 7.41848 11.1486V8.7097V7.83296C7.10941 7.78719 6.79486 7.76332 6.47679 7.76332C4.66971 7.76332 2.9796 8.51448 1.77149 9.86774C0.858359 10.8904 0.310639 12.1952 0.226134 13.5633C0.115416 15.3606 0.773071 17.0691 2.04848 18.3296C2.23587 18.5147 2.43266 18.6864 2.63845 18.8449C3.73193 19.6864 5.06876 20.1426 6.47679 20.1426C6.79486 20.1426 7.10941 20.1191 7.41848 20.0733C8.73379 19.8785 9.94738 19.2764 10.9051 18.3296C12.0819 17.1665 12.7321 15.6223 12.7392 13.9788L12.7224 6.68001C13.2838 7.1131 13.8976 7.47146 14.5564 7.74963C15.5811 8.18194 16.6675 8.40102 17.7856 8.40063V6.0294V5.14952C17.7864 5.1503 17.777 5.1503 17.7763 5.1503Z" fill="#BF86F9"/>
</svg>
