<svg width="22" height="18" viewBox="0 0 22 18" fill="none" xmlns="http://www.w3.org/2000/svg">
<path d="M21.5905 2.55965C20.7944 2.91016 19.951 3.14153 19.0875 3.24631C19.9967 2.69986 20.6774 1.8429 21.004 0.833682C20.1614 1.32542 19.2275 1.68337 18.2334 1.88273C17.5775 1.18138 16.7084 0.716214 15.7611 0.55946C14.8137 0.402705 13.8411 0.563136 12.9943 1.01584C12.1475 1.46854 11.4738 2.18819 11.0779 3.06302C10.6821 3.93785 10.5861 4.91892 10.805 5.85387C7.18117 5.68287 3.97112 3.94184 1.82075 1.31213C1.42983 1.97648 1.22593 2.73422 1.23066 3.50503C1.23066 5.02013 2.0015 6.35181 3.16927 7.13417C2.47716 7.11214 1.80034 6.92501 1.19522 6.58838V6.64154C1.19483 7.64841 1.54278 8.6244 2.18004 9.40394C2.81729 10.1835 3.70462 10.7185 4.69145 10.9184C4.05201 11.0897 3.38228 11.1154 2.73158 10.9937C3.01167 11.8602 3.55528 12.6177 4.28655 13.1604C5.01783 13.7032 5.9003 14.0041 6.81081 14.0212C5.26872 15.2315 3.36462 15.8883 1.40432 15.8863C1.05877 15.8863 0.71411 15.8659 0.367676 15.8269C2.36628 17.1066 4.69014 17.7859 7.06333 17.7841C15.0845 17.7841 19.4658 11.1425 19.4658 5.39314C19.4658 5.20708 19.4658 5.02101 19.4525 4.83495C20.3084 4.21904 21.0467 3.45437 21.6322 2.57737L21.5905 2.55965Z" fill="#BF86F9"/>
</svg>
