<svg width="20" height="20" viewBox="0 0 20 20" fill="none" xmlns="http://www.w3.org/2000/svg">
<path d="M6.65594 8.07853L8.59344 6.14103V12.9254C8.59344 13.2984 8.7416 13.6561 9.00532 13.9198C9.26904 14.1835 9.62673 14.3317 9.99969 14.3317C10.3726 14.3317 10.7303 14.1835 10.9941 13.9198C11.2578 13.6561 11.4059 13.2984 11.4059 12.9254V6.14103L13.3434 8.07853C13.4722 8.21669 13.6274 8.32751 13.7999 8.40437C13.9724 8.48123 14.1586 8.52256 14.3475 8.52589C14.5363 8.52922 14.7238 8.49449 14.8989 8.42376C15.074 8.35303 15.2331 8.24776 15.3666 8.11423C15.5002 7.98069 15.6054 7.82163 15.6762 7.64653C15.7469 7.47142 15.7816 7.28387 15.7783 7.09505C15.775 6.90623 15.7336 6.72002 15.6568 6.54752C15.5799 6.37502 15.4691 6.21977 15.3309 6.09103L10.3309 1.09103C10.2876 1.04719 10.236 1.01238 10.1792 0.988626C10.1223 0.96487 10.0613 0.952637 9.99969 0.952637C9.93806 0.952637 9.87705 0.96487 9.82019 0.988626C9.76333 1.01238 9.71175 1.04719 9.66844 1.09103L4.66844 6.09103C4.42004 6.35761 4.28481 6.7102 4.29123 7.07451C4.29766 7.43883 4.44525 7.78642 4.7029 8.04407C4.96055 8.30172 5.30814 8.44931 5.67246 8.45573C6.03677 8.46216 6.38936 8.32693 6.65594 8.07853Z" fill="#DE3DFF"/>
<path d="M16.2943 11.0036C16.0861 10.9331 15.864 10.9133 15.6466 10.9459C15.4292 10.9786 15.2227 11.0626 15.0443 11.1911C14.8332 11.3416 14.6678 11.5475 14.5664 11.7861C14.465 12.0247 14.4316 12.2866 14.4697 12.5431C14.5079 12.7995 14.6162 13.0404 14.7827 13.2391C14.9491 13.4378 15.1673 13.5867 15.413 13.6692C15.7396 13.7817 16.017 14.0038 16.1982 14.2978C16.3794 14.5918 16.4531 14.9395 16.4068 15.2817C16.3491 15.6511 16.1585 15.9868 15.8708 16.2256C15.583 16.4644 15.218 16.5899 14.8443 16.5786H5.15679C4.78306 16.5899 4.41805 16.4644 4.13033 16.2256C3.84261 15.9868 3.652 15.6511 3.59429 15.2817C3.54801 14.9395 3.62173 14.5918 3.80291 14.2978C3.98409 14.0038 4.26154 13.7817 4.58804 13.6692C4.8338 13.5867 5.05197 13.4378 5.21844 13.2391C5.3849 13.0404 5.4932 12.7995 5.53135 12.5431C5.56951 12.2866 5.53604 12.0247 5.43465 11.7861C5.33325 11.5475 5.16788 11.3416 4.95679 11.1911C4.7784 11.0626 4.57191 10.9786 4.3545 10.9459C4.13709 10.9133 3.91503 10.9331 3.70679 11.0036C2.7881 11.3135 2.0011 11.9248 1.47354 12.7382C0.945973 13.5517 0.708812 14.5196 0.800545 15.4848C0.923142 16.5645 1.44063 17.5607 2.25347 18.2818C3.06631 19.0029 4.11709 19.398 5.20367 19.3911H14.7974C15.884 19.398 16.9348 19.0029 17.7476 18.2818C18.5605 17.5607 19.0779 16.5645 19.2005 15.4848C19.2923 14.5196 19.0551 13.5517 18.5276 12.7382C18 11.9248 17.213 11.3135 16.2943 11.0036Z" fill="#DE3DFF"/>
</svg>
