<svg width="18" height="16" viewBox="0 0 18 16" fill="none" xmlns="http://www.w3.org/2000/svg">
<path fill-rule="evenodd" clip-rule="evenodd" d="M11.7431 -0.000488281C12.1218 -0.000488281 12.4288 0.30652 12.4288 0.685226V15.3138C12.4288 15.6925 12.1218 15.9995 11.7431 15.9995C11.3644 15.9995 11.0574 15.6925 11.0574 15.3138V0.685226C11.0574 0.30652 11.3644 -0.000488281 11.7431 -0.000488281ZM9.00022 2.74237C9.37892 2.74237 9.68594 3.04938 9.68594 3.42808V12.5709C9.68594 12.9496 9.37892 13.2567 9.00022 13.2567C8.62153 13.2567 8.31451 12.9496 8.31451 12.5709V3.42808C8.31451 3.04938 8.62153 2.74237 9.00022 2.74237ZM3.51451 3.65665C3.89322 3.65665 4.20022 3.96366 4.20022 4.34237V11.6567C4.20022 12.0354 3.89322 12.3424 3.51451 12.3424C3.1358 12.3424 2.82879 12.0354 2.82879 11.6567V4.34237C2.82879 3.96366 3.1358 3.65665 3.51451 3.65665ZM14.4859 4.57094C14.8646 4.57094 15.1717 4.87795 15.1717 5.25665V10.7424C15.1717 11.1211 14.8646 11.4281 14.4859 11.4281C14.1072 11.4281 13.8002 11.1211 13.8002 10.7424V5.25665C13.8002 4.87795 14.1072 4.57094 14.4859 4.57094ZM6.25737 5.48523C6.63607 5.48523 6.94308 5.79223 6.94308 6.17094V9.82808C6.94308 10.2068 6.63607 10.5138 6.25737 10.5138C5.87866 10.5138 5.57165 10.2068 5.57165 9.82808V6.17094C5.57165 5.79223 5.87866 5.48523 6.25737 5.48523ZM0.771652 6.39951C1.15036 6.39951 1.45737 6.70653 1.45737 7.08523V8.9138C1.45737 9.29249 1.15036 9.59951 0.771652 9.59951C0.392945 9.59951 0.0859375 9.29249 0.0859375 8.9138V7.08523C0.0859375 6.70653 0.392945 6.39951 0.771652 6.39951ZM17.2288 6.39951C17.6075 6.39951 17.9145 6.70653 17.9145 7.08523V8.9138C17.9145 9.29249 17.6075 9.59951 17.2288 9.59951C16.8501 9.59951 16.5431 9.29249 16.5431 8.9138V7.08523C16.5431 6.70653 16.8501 6.39951 17.2288 6.39951Z" fill="#BF86F9"/>
</svg>
