<svg width="18" height="17" viewBox="0 0 18 17" fill="none" xmlns="http://www.w3.org/2000/svg">
<path d="M12.2493 8.46883L16.4925 4.22608C16.9145 3.80409 17.1515 3.23174 17.1515 2.63496C17.1515 2.03817 16.9145 1.46582 16.4925 1.04383C16.0705 0.621839 15.4981 0.384766 14.9013 0.384766C14.3046 0.384766 13.7322 0.621839 13.3102 1.04383L9.06746 5.28696L4.82471 1.04383C4.40272 0.621839 3.83038 0.384766 3.23359 0.384766C2.6368 0.384766 2.06446 0.621839 1.64246 1.04383C1.22047 1.46582 0.983398 2.03817 0.983398 2.63496C0.983398 3.23174 1.22047 3.80409 1.64246 4.22608L5.88559 8.46883L1.64246 12.7116C1.22047 13.1336 0.983398 13.7059 0.983398 14.3027C0.983398 14.8995 1.22047 15.4718 1.64246 15.8938C2.06446 16.3158 2.6368 16.5529 3.23359 16.5529C3.83038 16.5529 4.40272 16.3158 4.82471 15.8938L9.06746 11.6507L13.3102 15.8938C13.7322 16.3158 14.3046 16.5529 14.9013 16.5529C15.4981 16.5529 16.0705 16.3158 16.4925 15.8938C16.9145 15.4718 17.1515 14.8995 17.1515 14.3027C17.1515 13.7059 16.9145 13.1336 16.4925 12.7116L12.2493 8.46883Z" fill="white"/>
</svg>
