<svg width="24" height="25" viewBox="0 0 24 25" fill="none" xmlns="http://www.w3.org/2000/svg">
<path d="M22.7747 6.51883C22.5154 5.55492 21.7554 4.79507 20.7916 4.53552C19.0309 4.05377 11.988 4.05377 11.988 4.05377C11.988 4.05377 4.94536 4.05377 3.18466 4.51726C2.23943 4.77653 1.46091 5.55505 1.20163 6.51883C0.738281 8.27939 0.738281 11.9306 0.738281 11.9306C0.738281 11.9306 0.738281 15.6001 1.20163 17.3423C1.46118 18.3061 2.22089 19.0659 3.1848 19.3255C4.9639 19.8073 11.9883 19.8073 11.9883 19.8073C11.9883 19.8073 19.0309 19.8073 20.7916 19.3439C21.7555 19.0844 22.5154 18.3246 22.7749 17.3608C23.2381 15.6001 23.2381 11.9491 23.2381 11.9491C23.2381 11.9491 23.2567 8.27939 22.7747 6.51883ZM9.7457 15.3036V8.55748L15.6022 11.9306L9.7457 15.3036Z" fill="#BF86F9"/>
</svg>
